<?xml version="1.0" encoding="UTF-8"?>
<!DOCTYPE svg PUBLIC "-//W3C//DTD SVG 1.1//EN" "http://www.w3.org/Graphics/SVG/1.1/DTD/svg11.dtd">
<svg xmlns="http://www.w3.org/2000/svg" version="1.1" width="347px" height="321px" style="shape-rendering:geometricPrecision; text-rendering:geometricPrecision; image-rendering:optimizeQuality; fill-rule:evenodd; clip-rule:evenodd" xmlns:xlink="http://www.w3.org/1999/xlink">
<g><path style="opacity:1" fill="#000000" d="M -0.5,-0.5 C 20.8333,-0.5 42.1667,-0.5 63.5,-0.5C 60.5819,4.91966 58.2486,10.5863 56.5,16.5C 51.486,27.5534 48.486,39.2201 47.5,51.5C 45.1923,64.0495 44.859,76.7162 46.5,89.5C 46.9416,101.232 48.9416,112.565 52.5,123.5C 53.1213,130.999 55.1213,137.999 58.5,144.5C 58.5,144.833 58.5,145.167 58.5,145.5C 59.6693,150.01 61.336,154.344 63.5,158.5C 67.3781,168.588 72.0447,178.255 77.5,187.5C 88.111,206.277 103.111,220.443 122.5,230C 141.32,236.035 159.987,235.868 178.5,229.5C 182.655,228.258 186.322,226.258 189.5,223.5C 201.687,215.983 213.02,207.317 223.5,197.5C 232.858,189.803 242.191,182.137 251.5,174.5C 252.694,173.728 253.694,172.728 254.5,171.5C 257.806,169.511 261.139,167.511 264.5,165.5C 264.833,165.667 265.167,165.833 265.5,166C 264.009,168.308 263.009,170.808 262.5,173.5C 260.832,182.244 261.665,190.911 265,199.5C 268.768,208.048 273.268,216.048 278.5,223.5C 281.419,229.406 285.085,234.74 289.5,239.5C 291.5,242.167 293.833,244.5 296.5,246.5C 298.239,249.243 300.573,251.243 303.5,252.5C 308.679,257.669 314.679,261.669 321.5,264.5C 329.375,268.89 337.708,272.223 346.5,274.5C 346.5,289.833 346.5,305.167 346.5,320.5C 230.833,320.5 115.167,320.5 -0.5,320.5C -0.5,213.5 -0.5,106.5 -0.5,-0.5 Z"/></g>
<g><path style="opacity:1" fill="#0a0403" d="M 84.5,-0.5 C 104.833,-0.5 125.167,-0.5 145.5,-0.5C 143.251,3.59801 140.751,7.59801 138,11.5C 124.798,26.193 112.964,41.8597 102.5,58.5C 99.331,62.833 96.6643,67.4997 94.5,72.5C 92.659,74.8485 91.3257,77.5152 90.5,80.5C 88.4424,82.9266 86.6091,85.5932 85,88.5C 83.3333,89.8333 81.6667,91.1667 80,92.5C 79.3333,93.5 79.3333,94.5 80,95.5C 82.3284,94.3365 84.1618,92.6698 85.5,90.5C 86.0431,90.56 86.3764,90.8933 86.5,91.5C 84.0666,96.1776 82.7332,101.178 82.5,106.5C 82.1667,107.5 81.8333,108.5 81.5,109.5C 80.1575,108.098 79.3242,108.431 79,110.5C 78.6667,112.833 78.3333,115.167 78,117.5C 77.1207,114.654 75.4541,113.987 73,115.5C 72.7679,114.263 72.2679,113.263 71.5,112.5C 70.2879,109.22 69.2879,105.887 68.5,102.5C 68.5,100.5 68.5,98.5 68.5,96.5C 69.1174,96.3893 69.6174,96.056 70,95.5C 70.4995,89.1754 70.6662,82.8421 70.5,76.5C 71.2238,72.8126 72.2238,69.1459 73.5,65.5C 75.1708,63.9923 77.0041,63.6589 79,64.5C 79.2233,62.1192 80.39,60.4525 82.5,59.5C 82.3691,60.3764 82.7025,61.0431 83.5,61.5C 85.0255,61.0057 86.3588,60.339 87.5,59.5C 90.5015,56.4916 93.1682,53.1583 95.5,49.5C 96.4793,48.2347 97.4793,46.9014 98.5,45.5C 97.1468,44.4763 96.4802,43.143 96.5,41.5C 94.4471,41.4021 92.7804,42.0687 91.5,43.5C 87.9545,44.3851 85.2878,46.3851 83.5,49.5C 82.5,49.5 81.5,49.5 80.5,49.5C 80.5,50.5 80.5,51.5 80.5,52.5C 78.302,52.1201 76.6354,52.7868 75.5,54.5C 74.6618,54.1583 74.3284,53.4916 74.5,52.5C 75.8621,46.511 78.0288,40.8444 81,35.5C 82.5881,30.6696 84.4214,26.003 86.5,21.5C 87.0967,21.2648 87.4301,20.7648 87.5,20C 85.86,15.2469 83.86,11.4135 81.5,8.5C 82.2484,5.35473 83.2484,2.35473 84.5,-0.5 Z"/></g>
<g><path style="opacity:1" fill="#000000" d="M 154.5,-0.5 C 218.5,-0.5 282.5,-0.5 346.5,-0.5C 346.5,28.1667 346.5,56.8333 346.5,85.5C 340.152,86.1045 333.819,86.9379 327.5,88C 333.85,88.5244 340.184,88.3577 346.5,87.5C 346.5,95.8333 346.5,104.167 346.5,112.5C 340.819,112.365 335.152,112.032 329.5,111.5C 322.716,111.08 316.05,111.58 309.5,113C 313.821,113.499 318.154,113.666 322.5,113.5C 329.022,113.177 335.355,113.51 341.5,114.5C 332.651,114.174 323.984,114.507 315.5,115.5C 311.989,115.899 308.656,116.566 305.5,117.5C 305.167,117.5 304.833,117.5 304.5,117.5C 295.559,118.013 294.559,120.68 301.5,125.5C 299.379,125.325 297.379,125.659 295.5,126.5C 295.167,126.5 294.833,126.5 294.5,126.5C 294.715,124.821 294.048,123.821 292.5,123.5C 292.167,123.5 291.833,123.5 291.5,123.5C 290.054,122.387 288.387,122.22 286.5,123C 283.848,123.353 281.848,124.52 280.5,126.5C 278.302,126.12 276.635,126.787 275.5,128.5C 269.425,129.704 264.425,132.704 260.5,137.5C 253.985,142.259 247.652,147.259 241.5,152.5C 239.833,153.167 238.167,153.833 236.5,154.5C 239.964,151.538 243.297,148.371 246.5,145C 245.167,144.333 243.833,144.333 242.5,145C 233.5,152.667 224.5,160.333 215.5,168C 214.663,169.011 214.33,170.178 214.5,171.5C 213.041,171.433 211.708,171.766 210.5,172.5C 205.343,175.6 200.677,179.433 196.5,184C 195.563,184.692 194.897,184.525 194.5,183.5C 196.167,181.5 197.833,179.5 199.5,177.5C 207.991,169.334 214.991,160.001 220.5,149.5C 224.175,144.803 227.842,140.136 231.5,135.5C 240.526,127.471 249.526,119.471 258.5,111.5C 274.498,100.662 292.165,93.8285 311.5,91C 291.497,92.1778 273.497,98.6778 257.5,110.5C 247.88,117.786 238.88,125.786 230.5,134.5C 222.784,142.217 215.784,150.551 209.5,159.5C 202.687,168.432 195.854,177.432 189,186.5C 184.5,191.667 179.667,196.5 174.5,201C 164.741,205.856 154.408,208.023 143.5,207.5C 133.238,206.468 123.904,202.968 115.5,197C 106.389,190.816 98.7224,183.316 92.5,174.5C 90.602,169.704 88.4353,165.038 86,160.5C 83.9779,153.405 82.1445,146.405 80.5,139.5C 80.5,137.833 80.5,136.167 80.5,134.5C 80.5,130.167 80.5,125.833 80.5,121.5C 83.1409,105.278 87.8076,89.6115 94.5,74.5C 97.4825,69.2065 100.482,63.8731 103.5,58.5C 108.137,52.3471 112.637,46.0138 117,39.5C 118.371,37.9586 119.871,36.6253 121.5,35.5C 130.437,26.0618 139.604,16.7284 149,7.5C 151.054,4.9528 152.887,2.28614 154.5,-0.5 Z"/></g>
<g><path style="opacity:1" fill="#401532" d="M 75.5,-0.5 C 78.5,-0.5 81.5,-0.5 84.5,-0.5C 83.2484,2.35473 82.2484,5.35473 81.5,8.5C 83.86,11.4135 85.86,15.2469 87.5,20C 87.4301,20.7648 87.0967,21.2648 86.5,21.5C 86.1788,19.9519 85.1788,19.2852 83.5,19.5C 83.7406,21.8984 83.0739,23.8984 81.5,25.5C 81.5,23.5 81.5,21.5 81.5,19.5C 80.448,19.3505 79.448,19.5172 78.5,20C 77.3913,21.8761 76.3913,23.7095 75.5,25.5C 75.6716,24.5084 75.3382,23.8417 74.5,23.5C 72.8829,22.4107 72.0496,20.744 72,18.5C 71.2917,19.3805 70.4584,20.0472 69.5,20.5C 69.5,19.8333 69.5,19.1667 69.5,18.5C 72.6789,12.6259 74.6789,6.29256 75.5,-0.5 Z"/></g>
<g><path style="opacity:1" fill="#677173" d="M 150.5,-0.5 C 151.833,-0.5 153.167,-0.5 154.5,-0.5C 152.887,2.28614 151.054,4.9528 149,7.5C 139.604,16.7284 130.437,26.0618 121.5,35.5C 128.06,26.7637 135.227,18.4304 143,10.5C 145.016,6.45768 147.516,2.79101 150.5,-0.5 Z"/></g>
<g><path style="opacity:1" fill="#4a613f" d="M 68.5,-0.5 C 70.1667,-0.5 71.8333,-0.5 73.5,-0.5C 72.6204,5.64525 70.287,11.1453 66.5,16C 67.7205,16.2463 68.7205,17.0796 69.5,18.5C 69.5,19.1667 69.5,19.8333 69.5,20.5C 68.0582,21.8195 67.3915,23.4862 67.5,25.5C 67.5,26.1667 67.1667,26.5 66.5,26.5C 66.3399,22.7636 65.5066,22.7636 64,26.5C 63.9217,23.6285 64.4217,20.7952 65.5,18C 65.4301,17.2352 65.0967,16.7352 64.5,16.5C 65.4105,10.7609 66.7439,5.09422 68.5,-0.5 Z"/></g>
<g><path style="opacity:1" fill="#3e3a34" d="M 73.5,-0.5 C 74.1667,-0.5 74.8333,-0.5 75.5,-0.5C 74.6789,6.29256 72.6789,12.6259 69.5,18.5C 68.7205,17.0796 67.7205,16.2463 66.5,16C 70.287,11.1453 72.6204,5.64525 73.5,-0.5 Z"/></g>
<g><path style="opacity:1" fill="#91696b" d="M 63.5,-0.5 C 64.8333,-0.5 66.1667,-0.5 67.5,-0.5C 66.9251,2.91162 65.5918,5.91162 63.5,8.5C 63.2792,5.90277 62.7792,5.90277 62,8.5C 60.2251,13.9952 58.3918,19.3286 56.5,24.5C 56.5,23.5 56.5,22.5 56.5,21.5C 57.0965,19.602 57.0965,17.9354 56.5,16.5C 58.2486,10.5863 60.5819,4.91966 63.5,-0.5 Z"/></g>
<g><path style="opacity:1" fill="#557b77" d="M 63.5,8.5 C 61.4293,14.3799 59.7627,20.3799 58.5,26.5C 58.5,26.8333 58.5,27.1667 58.5,27.5C 56.7973,28.6602 56.1307,27.9935 56.5,25.5C 56.5,25.1667 56.5,24.8333 56.5,24.5C 58.3918,19.3286 60.2251,13.9952 62,8.5C 62.7792,5.90277 63.2792,5.90277 63.5,8.5 Z"/></g>
<g><path style="opacity:1" fill="#a68b65" d="M 67.5,-0.5 C 67.8333,-0.5 68.1667,-0.5 68.5,-0.5C 66.7439,5.09422 65.4105,10.7609 64.5,16.5C 63.5376,20.3948 62.2043,24.0615 60.5,27.5C 60.6567,26.1266 60.49,24.7932 60,23.5C 59.7679,24.7375 59.2679,25.7375 58.5,26.5C 59.7627,20.3799 61.4293,14.3799 63.5,8.5C 65.5918,5.91162 66.9251,2.91162 67.5,-0.5 Z"/></g>
<g><path style="opacity:1" fill="#511e92" d="M 145.5,-0.5 C 147.167,-0.5 148.833,-0.5 150.5,-0.5C 147.516,2.79101 145.016,6.45768 143,10.5C 135.227,18.4304 128.06,26.7637 121.5,35.5C 119.871,36.6253 118.371,37.9586 117,39.5C 112.637,46.0138 108.137,52.3471 103.5,58.5C 103.167,58.5 102.833,58.5 102.5,58.5C 112.964,41.8597 124.798,26.193 138,11.5C 140.751,7.59801 143.251,3.59801 145.5,-0.5 Z"/></g>
<g><path style="opacity:1" fill="#783b84" d="M 74.5,23.5 C 73.2376,26.4672 71.2376,27.1339 68.5,25.5C 68.1667,25.5 67.8333,25.5 67.5,25.5C 67.3915,23.4862 68.0582,21.8195 69.5,20.5C 70.4584,20.0472 71.2917,19.3805 72,18.5C 72.0496,20.744 72.8829,22.4107 74.5,23.5 Z"/></g>
<g><path style="opacity:1" fill="#a744e3" d="M 74.5,23.5 C 75.3382,23.8417 75.6716,24.5084 75.5,25.5C 73.8333,28.1667 72.1667,30.8333 70.5,33.5C 69.0318,31.0842 68.3651,28.4175 68.5,25.5C 71.2376,27.1339 73.2376,26.4672 74.5,23.5 Z"/></g>
<g><path style="opacity:1" fill="#b77dbe" d="M 56.5,21.5 C 56.5,22.5 56.5,23.5 56.5,24.5C 56.5,24.8333 56.5,25.1667 56.5,25.5C 54.2966,30.4865 52.9633,35.8198 52.5,41.5C 51.8333,42.1667 51.1667,42.8333 50.5,43.5C 51.1133,35.6783 53.1133,28.345 56.5,21.5 Z"/></g>
<g><path style="opacity:1" fill="#679c92" d="M 81.5,25.5 C 78.7079,31.0308 76.3746,36.6975 74.5,42.5C 72.7957,45.9385 71.4624,49.6052 70.5,53.5C 70.0617,51.3618 69.8951,49.0285 70,46.5C 69.6667,47.5 69.3333,48.5 69,49.5C 68.7216,48.5842 68.2216,47.9175 67.5,47.5C 67.5,46.8333 67.1667,46.5 66.5,46.5C 66.5,45.8333 66.5,45.1667 66.5,44.5C 67.1667,42.8333 67.8333,41.1667 68.5,39.5C 69.3627,37.5786 70.0293,35.5786 70.5,33.5C 72.1667,30.8333 73.8333,28.1667 75.5,25.5C 76.3913,23.7095 77.3913,21.8761 78.5,20C 79.448,19.5172 80.448,19.3505 81.5,19.5C 81.5,21.5 81.5,23.5 81.5,25.5 Z"/></g>
<g><path style="opacity:1" fill="#f356fa" d="M 67.5,25.5 C 67.8333,25.5 68.1667,25.5 68.5,25.5C 68.3651,28.4175 69.0318,31.0842 70.5,33.5C 70.0293,35.5786 69.3627,37.5786 68.5,39.5C 66.6122,37.0122 65.9455,34.0122 66.5,30.5C 66.5,29.1667 66.5,27.8333 66.5,26.5C 67.1667,26.5 67.5,26.1667 67.5,25.5 Z"/></g>
<g><path style="opacity:1" fill="#d573e8" d="M 66.5,30.5 C 65.9455,34.0122 66.6122,37.0122 68.5,39.5C 67.8333,41.1667 67.1667,42.8333 66.5,44.5C 64.744,43.4479 64.0773,41.7812 64.5,39.5C 64.0679,36.1226 64.7345,33.1226 66.5,30.5 Z"/></g>
<g><path style="opacity:1" fill="#a4a057" d="M 64.5,16.5 C 65.0967,16.7352 65.4301,17.2352 65.5,18C 64.4217,20.7952 63.9217,23.6285 64,26.5C 65.5066,22.7636 66.3399,22.7636 66.5,26.5C 66.5,27.8333 66.5,29.1667 66.5,30.5C 64.7345,33.1226 64.0679,36.1226 64.5,39.5C 63.3659,41.9664 63.1993,44.633 64,47.5C 64.3826,48.056 64.8826,48.3893 65.5,48.5C 63.7517,52.4825 62.585,52.1491 62,47.5C 61.5065,49.1341 61.3398,50.8008 61.5,52.5C 61.5,53.1667 61.5,53.8333 61.5,54.5C 60.5,55.1667 59.5,55.8333 58.5,56.5C 58.0948,46.6074 58.7615,36.9407 60.5,27.5C 62.2043,24.0615 63.5376,20.3948 64.5,16.5 Z"/></g>
<g><path style="opacity:1" fill="#a29080" d="M 56.5,16.5 C 57.0965,17.9354 57.0965,19.602 56.5,21.5C 53.1133,28.345 51.1133,35.6783 50.5,43.5C 50.3713,45.2161 50.038,46.8828 49.5,48.5C 48.8333,49.5 48.1667,50.5 47.5,51.5C 48.486,39.2201 51.486,27.5534 56.5,16.5 Z"/></g>
<g><path style="opacity:1" fill="#6380a1" d="M 64.5,39.5 C 64.0773,41.7812 64.744,43.4479 66.5,44.5C 66.5,45.1667 66.5,45.8333 66.5,46.5C 66.1667,47.1667 65.8333,47.8333 65.5,48.5C 64.8826,48.3893 64.3826,48.056 64,47.5C 63.1993,44.633 63.3659,41.9664 64.5,39.5 Z"/></g>
<g><path style="opacity:1" fill="#233271" d="M 95.5,49.5 C 95.6716,48.5084 95.3382,47.8417 94.5,47.5C 95.5042,45.3227 94.8375,44.9893 92.5,46.5C 92.4142,45.5041 92.7476,44.6708 93.5,44C 92.9056,43.5357 92.2389,43.369 91.5,43.5C 92.7804,42.0687 94.4471,41.4021 96.5,41.5C 96.4802,43.143 97.1468,44.4763 98.5,45.5C 97.4793,46.9014 96.4793,48.2347 95.5,49.5 Z"/></g>
<g><path style="opacity:1" fill="#3f5a8f" d="M 74.5,42.5 C 73.9431,47.1646 72.6098,51.4979 70.5,55.5C 70.5,54.8333 70.5,54.1667 70.5,53.5C 71.4624,49.6052 72.7957,45.9385 74.5,42.5 Z"/></g>
<g><path style="opacity:1" fill="#4628d3" d="M 91.5,43.5 C 92.2389,43.369 92.9056,43.5357 93.5,44C 92.7476,44.6708 92.4142,45.5041 92.5,46.5C 89.9149,48.7095 87.9149,51.3761 86.5,54.5C 84.5165,54.3832 82.8498,55.0499 81.5,56.5C 80.7406,53.882 81.4073,51.5486 83.5,49.5C 85.2878,46.3851 87.9545,44.3851 91.5,43.5 Z"/></g>
<g><path style="opacity:1" fill="#d2b381" d="M 60.5,27.5 C 58.7615,36.9407 58.0948,46.6074 58.5,56.5C 58.5,56.8333 58.5,57.1667 58.5,57.5C 57.5093,63.979 57.176,70.6457 57.5,77.5C 57.1667,77.5 56.8333,77.5 56.5,77.5C 55.6709,72.8689 55.0042,68.2022 54.5,63.5C 56.3177,55.1052 56.6511,46.7719 55.5,38.5C 55.6243,34.5876 56.6243,30.9209 58.5,27.5C 58.5,27.1667 58.5,26.8333 58.5,26.5C 59.2679,25.7375 59.7679,24.7375 60,23.5C 60.49,24.7932 60.6567,26.1266 60.5,27.5 Z"/></g>
<g><path style="opacity:1" fill="#3a1886" d="M 94.5,47.5 C 95.3382,47.8417 95.6716,48.5084 95.5,49.5C 93.1682,53.1583 90.5015,56.4916 87.5,59.5C 86.9569,59.44 86.6236,59.1067 86.5,58.5C 88.4208,54.2525 91.0875,50.5859 94.5,47.5 Z"/></g>
<g><path style="opacity:1" fill="#3e1f79" d="M 83.5,49.5 C 81.4073,51.5486 80.7406,53.882 81.5,56.5C 82.8498,55.0499 84.5165,54.3832 86.5,54.5C 85.8333,55.8333 84.8333,56.8333 83.5,57.5C 81.1417,57.2525 79.1417,57.9192 77.5,59.5C 77.0618,59.5654 76.7284,59.3988 76.5,59C 79.112,56.8487 79.112,56.0153 76.5,56.5C 75.7025,56.0431 75.3691,55.3764 75.5,54.5C 76.6354,52.7868 78.302,52.1201 80.5,52.5C 80.5,51.5 80.5,50.5 80.5,49.5C 81.5,49.5 82.5,49.5 83.5,49.5 Z"/></g>
<g><path style="opacity:1" fill="#ddaa55" d="M 55.5,38.5 C 56.6511,46.7719 56.3177,55.1052 54.5,63.5C 53.596,62.791 53.2627,61.791 53.5,60.5C 54.1667,53.1667 54.8333,45.8333 55.5,38.5 Z"/></g>
<g><path style="opacity:1" fill="#382148" d="M 94.5,47.5 C 91.0875,50.5859 88.4208,54.2525 86.5,58.5C 86.6236,59.1067 86.9569,59.44 87.5,59.5C 86.3588,60.339 85.0255,61.0057 83.5,61.5C 82.7025,61.0431 82.3691,60.3764 82.5,59.5C 82.8333,58.8333 83.1667,58.1667 83.5,57.5C 84.8333,56.8333 85.8333,55.8333 86.5,54.5C 87.9149,51.3761 89.9149,48.7095 92.5,46.5C 94.8375,44.9893 95.5042,45.3227 94.5,47.5 Z"/></g>
<g><path style="opacity:1" fill="#a7df66" d="M 61.5,52.5 C 62.6879,53.6843 63.8545,53.6843 65,52.5C 65.7223,57.0503 65.2223,61.3836 63.5,65.5C 63.1667,65.5 62.8333,65.5 62.5,65.5C 62.815,61.6286 62.4816,57.9619 61.5,54.5C 61.5,53.8333 61.5,53.1667 61.5,52.5 Z"/></g>
<g><path style="opacity:1" fill="#251039" d="M 74.5,52.5 C 74.3284,53.4916 74.6618,54.1583 75.5,54.5C 75.3691,55.3764 75.7025,56.0431 76.5,56.5C 79.112,56.0153 79.112,56.8487 76.5,59C 76.7284,59.3988 77.0618,59.5654 77.5,59.5C 75.8623,60.8322 74.1956,62.1655 72.5,63.5C 72.6459,59.6125 73.3126,55.9458 74.5,52.5 Z"/></g>
<g><path style="opacity:1" fill="#6b5342" d="M 56.5,25.5 C 56.1307,27.9935 56.7973,28.6602 58.5,27.5C 56.6243,30.9209 55.6243,34.5876 55.5,38.5C 54.8333,45.8333 54.1667,53.1667 53.5,60.5C 52.5386,62.2646 52.2053,64.2646 52.5,66.5C 51.5206,69.6248 51.1872,72.9581 51.5,76.5C 51.1667,76.5 50.8333,76.5 50.5,76.5C 50.4657,64.7841 51.1323,53.1175 52.5,41.5C 52.9633,35.8198 54.2966,30.4865 56.5,25.5 Z"/></g>
<g><path style="opacity:1" fill="#2e2083" d="M 86.5,21.5 C 84.4214,26.003 82.5881,30.6696 81,35.5C 78.0288,40.8444 75.8621,46.511 74.5,52.5C 73.3126,55.9458 72.6459,59.6125 72.5,63.5C 71.8333,63.5 71.5,63.8333 71.5,64.5C 70.5166,68.2984 70.1832,72.2984 70.5,76.5C 70.6662,82.8421 70.4995,89.1754 70,95.5C 69.6174,96.056 69.1174,96.3893 68.5,96.5C 68.5,94.5 68.5,92.5 68.5,90.5C 69.6561,82.6775 69.8228,74.6775 69,66.5C 68.8267,72.0158 68.3267,77.3491 67.5,82.5C 67.5,78.5 67.5,74.5 67.5,70.5C 67.9247,65.3984 68.9247,60.3984 70.5,55.5C 72.6098,51.4979 73.9431,47.1646 74.5,42.5C 76.3746,36.6975 78.7079,31.0308 81.5,25.5C 83.0739,23.8984 83.7406,21.8984 83.5,19.5C 85.1788,19.2852 86.1788,19.9519 86.5,21.5 Z"/></g>
<g><path style="opacity:1" fill="#957360" d="M 83.5,57.5 C 83.1667,58.1667 82.8333,58.8333 82.5,59.5C 80.39,60.4525 79.2233,62.1192 79,64.5C 77.0041,63.6589 75.1708,63.9923 73.5,65.5C 72.5084,65.6716 71.8417,65.3382 71.5,64.5C 71.5,63.8333 71.8333,63.5 72.5,63.5C 74.1956,62.1655 75.8623,60.8322 77.5,59.5C 79.1417,57.9192 81.1417,57.2525 83.5,57.5 Z"/></g>
<g><path style="opacity:1" fill="#6c67a6" d="M 52.5,41.5 C 51.1323,53.1175 50.4657,64.7841 50.5,76.5C 49.8215,88.7749 51.9881,100.442 57,111.5C 57.5482,115.17 58.0482,118.837 58.5,122.5C 58.6567,123.873 58.49,125.207 58,126.5C 57.6174,125.944 57.1174,125.611 56.5,125.5C 52.9488,115.748 50.2821,105.748 48.5,95.5C 48.3473,79.8188 48.6806,64.1521 49.5,48.5C 50.038,46.8828 50.3713,45.2161 50.5,43.5C 51.1667,42.8333 51.8333,42.1667 52.5,41.5 Z"/></g>
<g><path style="opacity:1" fill="#72235b" d="M 102.5,58.5 C 102.833,58.5 103.167,58.5 103.5,58.5C 100.482,63.8731 97.4825,69.2065 94.5,74.5C 94.5,73.8333 94.5,73.1667 94.5,72.5C 96.6643,67.4997 99.331,62.833 102.5,58.5 Z"/></g>
<g><path style="opacity:1" fill="#cfdf4a" d="M 61.5,54.5 C 62.4816,57.9619 62.815,61.6286 62.5,65.5C 61.997,68.8458 61.3303,72.1792 60.5,75.5C 58.7007,69.665 58.0341,63.665 58.5,57.5C 58.5,57.1667 58.5,56.8333 58.5,56.5C 59.5,55.8333 60.5,55.1667 61.5,54.5 Z"/></g>
<g><path style="opacity:1" fill="#c2a0a7" d="M 49.5,48.5 C 48.6806,64.1521 48.3473,79.8188 48.5,95.5C 47.8333,93.5 47.1667,91.5 46.5,89.5C 44.859,76.7162 45.1923,64.0495 47.5,51.5C 48.1667,50.5 48.8333,49.5 49.5,48.5 Z"/></g>
<g><path style="opacity:1" fill="#3a1445" d="M 71.5,64.5 C 71.8417,65.3382 72.5084,65.6716 73.5,65.5C 72.2238,69.1459 71.2238,72.8126 70.5,76.5C 70.1832,72.2984 70.5166,68.2984 71.5,64.5 Z"/></g>
<g><path style="opacity:1" fill="#8f4e3e" d="M 53.5,60.5 C 53.2627,61.791 53.596,62.791 54.5,63.5C 55.0042,68.2022 55.6709,72.8689 56.5,77.5C 56.5524,81.1981 56.8857,84.8648 57.5,88.5C 56.8333,87.8333 56.1667,87.1667 55.5,86.5C 54.5065,79.9621 53.5065,73.2954 52.5,66.5C 52.2053,64.2646 52.5386,62.2646 53.5,60.5 Z"/></g>
<g><path style="opacity:1" fill="#4ac995" d="M 66.5,46.5 C 67.1667,46.5 67.5,46.8333 67.5,47.5C 66.0402,63.1215 65.3735,78.7881 65.5,94.5C 64.5309,92.337 63.6976,90.0037 63,87.5C 62.3167,80.1385 62.4833,72.8052 63.5,65.5C 65.2223,61.3836 65.7223,57.0503 65,52.5C 63.8545,53.6843 62.6879,53.6843 61.5,52.5C 61.3398,50.8008 61.5065,49.1341 62,47.5C 62.585,52.1491 63.7517,52.4825 65.5,48.5C 65.8333,47.8333 66.1667,47.1667 66.5,46.5 Z"/></g>
<g><path style="opacity:1" fill="#0e6ba7" d="M 67.5,70.5 C 67.5,74.5 67.5,78.5 67.5,82.5C 67.1936,85.3854 67.5269,88.0521 68.5,90.5C 68.5,92.5 68.5,94.5 68.5,96.5C 68.5,98.5 68.5,100.5 68.5,102.5C 67.6618,102.158 67.3284,101.492 67.5,100.5C 66.3946,90.3406 66.3946,80.3406 67.5,70.5 Z"/></g>
<g><path style="opacity:1" fill="#211bac" d="M 68.5,90.5 C 67.5269,88.0521 67.1936,85.3854 67.5,82.5C 68.3267,77.3491 68.8267,72.0158 69,66.5C 69.8228,74.6775 69.6561,82.6775 68.5,90.5 Z"/></g>
<g><path style="opacity:1" fill="#159ba0" d="M 70.5,53.5 C 70.5,54.1667 70.5,54.8333 70.5,55.5C 68.9247,60.3984 67.9247,65.3984 67.5,70.5C 66.3946,80.3406 66.3946,90.3406 67.5,100.5C 67.1667,100.5 66.8333,100.5 66.5,100.5C 65.6586,98.6208 65.3253,96.6208 65.5,94.5C 65.3735,78.7881 66.0402,63.1215 67.5,47.5C 68.2216,47.9175 68.7216,48.5842 69,49.5C 69.3333,48.5 69.6667,47.5 70,46.5C 69.8951,49.0285 70.0617,51.3618 70.5,53.5 Z"/></g>
<g><path style="opacity:1" fill="#a09a5d" d="M 52.5,66.5 C 53.5065,73.2954 54.5065,79.9621 55.5,86.5C 56.8967,92.0696 57.5634,97.7362 57.5,103.5C 55.0553,94.7097 53.0553,85.7097 51.5,76.5C 51.1872,72.9581 51.5206,69.6248 52.5,66.5 Z"/></g>
<g><path style="opacity:1" fill="#2e0c5f" d="M 346.5,85.5 C 346.5,86.1667 346.5,86.8333 346.5,87.5C 340.184,88.3577 333.85,88.5244 327.5,88C 333.819,86.9379 340.152,86.1045 346.5,85.5 Z"/></g>
<g><path style="opacity:1" fill="#aac989" d="M 58.5,57.5 C 58.0341,63.665 58.7007,69.665 60.5,75.5C 61.3303,72.1792 61.997,68.8458 62.5,65.5C 62.8333,65.5 63.1667,65.5 63.5,65.5C 62.4833,72.8052 62.3167,80.1385 63,87.5C 63.6976,90.0037 64.5309,92.337 65.5,94.5C 65.3253,96.6208 65.6586,98.6208 66.5,100.5C 66.5,101.5 66.5,102.5 66.5,103.5C 65.8333,104.167 65.1667,104.833 64.5,105.5C 61.9365,97.7315 60.4365,89.7315 60,81.5C 59.3918,79.9336 58.5585,78.6002 57.5,77.5C 57.176,70.6457 57.5093,63.979 58.5,57.5 Z"/></g>
<g><path style="opacity:1" fill="#602903" d="M 90.5,80.5 C 89.5866,84.2597 87.9199,87.5931 85.5,90.5C 84.1618,92.6698 82.3284,94.3365 80,95.5C 79.3333,94.5 79.3333,93.5 80,92.5C 81.6667,91.1667 83.3333,89.8333 85,88.5C 86.6091,85.5932 88.4424,82.9266 90.5,80.5 Z"/></g>
<g><path style="opacity:1" fill="#a9a09f" d="M 56.5,77.5 C 56.8333,77.5 57.1667,77.5 57.5,77.5C 58.5585,78.6002 59.3918,79.9336 60,81.5C 60.4365,89.7315 61.9365,97.7315 64.5,105.5C 66.1166,108.076 65.7833,109.076 63.5,108.5C 61.1928,101.941 59.1928,95.274 57.5,88.5C 56.8857,84.8648 56.5524,81.1981 56.5,77.5 Z"/></g>
<g><path style="opacity:1" fill="#bfa54f" d="M 55.5,86.5 C 56.1667,87.1667 56.8333,87.8333 57.5,88.5C 59.1928,95.274 61.1928,101.941 63.5,108.5C 66.9893,118.796 70.9893,128.796 75.5,138.5C 75.5,140.167 75.5,141.833 75.5,143.5C 73.2232,138.613 71.2232,133.613 69.5,128.5C 68.0698,124.646 66.4031,120.979 64.5,117.5C 62.6819,112.53 60.3486,107.864 57.5,103.5C 57.5634,97.7362 56.8967,92.0696 55.5,86.5 Z"/></g>
<g><path style="opacity:1" fill="#879c88" d="M 46.5,89.5 C 47.1667,91.5 47.8333,93.5 48.5,95.5C 50.2821,105.748 52.9488,115.748 56.5,125.5C 58.6092,128.95 60.2759,132.616 61.5,136.5C 57.7278,132.629 55.2278,127.962 54,122.5C 52.8932,121.288 52.3932,121.621 52.5,123.5C 48.9416,112.565 46.9416,101.232 46.5,89.5 Z"/></g>
<g><path style="opacity:1" fill="#603b49" d="M 50.5,76.5 C 50.8333,76.5 51.1667,76.5 51.5,76.5C 53.0553,85.7097 55.0553,94.7097 57.5,103.5C 57.2915,108.675 58.6249,113.342 61.5,117.5C 62.7,124.099 64.7,130.433 67.5,136.5C 66.8902,137.391 66.5569,138.391 66.5,139.5C 63.0248,134.216 60.3581,128.549 58.5,122.5C 58.0482,118.837 57.5482,115.17 57,111.5C 51.9881,100.442 49.8215,88.7749 50.5,76.5 Z"/></g>
<g><path style="opacity:1" fill="#2f2122" d="M 258.5,111.5 C 258.5,110.833 258.167,110.5 257.5,110.5C 273.497,98.6778 291.497,92.1778 311.5,91C 292.165,93.8285 274.498,100.662 258.5,111.5 Z"/></g>
<g><path style="opacity:1" fill="#456361" d="M 66.5,100.5 C 66.8333,100.5 67.1667,100.5 67.5,100.5C 67.3284,101.492 67.6618,102.158 68.5,102.5C 69.2879,105.887 70.2879,109.22 71.5,112.5C 71.5,113.833 71.5,115.167 71.5,116.5C 70.6468,113.813 69.1468,111.479 67,109.5C 66.5045,107.527 66.3379,105.527 66.5,103.5C 66.5,102.5 66.5,101.5 66.5,100.5 Z"/></g>
<g><path style="opacity:1" fill="#664e5e" d="M 329.5,111.5 C 327.167,112.167 324.833,112.833 322.5,113.5C 318.154,113.666 313.821,113.499 309.5,113C 316.05,111.58 322.716,111.08 329.5,111.5 Z"/></g>
<g><path style="opacity:1" fill="#3a342b" d="M 329.5,111.5 C 335.152,112.032 340.819,112.365 346.5,112.5C 346.5,113.167 346.5,113.833 346.5,114.5C 344.833,114.5 343.167,114.5 341.5,114.5C 335.355,113.51 329.022,113.177 322.5,113.5C 324.833,112.833 327.167,112.167 329.5,111.5 Z"/></g>
<g><path style="opacity:1" fill="#3f5316" d="M 305.5,112.5 C 306.675,112.281 307.675,112.614 308.5,113.5C 305.025,115.766 301.358,116.432 297.5,115.5C 297.709,114.914 298.043,114.414 298.5,114C 301.036,113.814 303.369,113.314 305.5,112.5 Z"/></g>
<g><path style="opacity:1" fill="#9bb8ba" d="M 57.5,103.5 C 60.3486,107.864 62.6819,112.53 64.5,117.5C 64.6309,118.376 64.2975,119.043 63.5,119.5C 62.8182,118.757 62.1515,118.091 61.5,117.5C 58.6249,113.342 57.2915,108.675 57.5,103.5 Z"/></g>
<g><path style="opacity:1" fill="#0a0783" d="M 315.5,115.5 C 317.222,117 318.888,118.667 320.5,120.5C 320.167,120.5 319.833,120.5 319.5,120.5C 319.167,120.5 318.833,120.5 318.5,120.5C 316.735,119.539 314.735,119.205 312.5,119.5C 310.562,117.837 308.228,117.171 305.5,117.5C 308.656,116.566 311.989,115.899 315.5,115.5 Z"/></g>
<g><path style="opacity:1" fill="#1f06d4" d="M 341.5,114.5 C 343.167,114.5 344.833,114.5 346.5,114.5C 346.5,116.167 346.5,117.833 346.5,119.5C 342.5,119.5 338.5,119.5 334.5,119.5C 334.5,120.5 334.5,121.5 334.5,122.5C 332.5,122.5 330.5,122.5 328.5,122.5C 327.5,122.5 326.5,122.5 325.5,122.5C 324.22,121.069 322.553,120.402 320.5,120.5C 318.888,118.667 317.222,117 315.5,115.5C 323.984,114.507 332.651,114.174 341.5,114.5 Z"/></g>
<g><path style="opacity:1" fill="#482e26" d="M 94.5,72.5 C 94.5,73.1667 94.5,73.8333 94.5,74.5C 87.8076,89.6115 83.1409,105.278 80.5,121.5C 80.6567,120.127 80.49,118.793 80,117.5C 80.3195,122.439 78.9861,126.773 76,130.5C 73.9863,125.96 72.4863,121.294 71.5,116.5C 71.5,115.167 71.5,113.833 71.5,112.5C 72.2679,113.263 72.7679,114.263 73,115.5C 75.4541,113.987 77.1207,114.654 78,117.5C 78.3333,115.167 78.6667,112.833 79,110.5C 79.3242,108.431 80.1575,108.098 81.5,109.5C 81.8333,108.5 82.1667,107.5 82.5,106.5C 82.7332,101.178 84.0666,96.1776 86.5,91.5C 86.3764,90.8933 86.0431,90.56 85.5,90.5C 87.9199,87.5931 89.5866,84.2597 90.5,80.5C 91.3257,77.5152 92.659,74.8485 94.5,72.5 Z"/></g>
<g><path style="opacity:1" fill="#250ebf" d="M 304.5,117.5 C 304.833,117.5 305.167,117.5 305.5,117.5C 308.228,117.171 310.562,117.837 312.5,119.5C 311.791,120.404 310.791,120.737 309.5,120.5C 306.833,120.5 304.167,120.5 301.5,120.5C 302.1,119.1 303.1,118.1 304.5,117.5 Z"/></g>
<g><path style="opacity:1" fill="#2f075e" d="M 304.5,117.5 C 303.1,118.1 302.1,119.1 301.5,120.5C 301.831,122.322 302.498,123.989 303.5,125.5C 302.833,125.5 302.167,125.5 301.5,125.5C 294.559,120.68 295.559,118.013 304.5,117.5 Z"/></g>
<g><path style="opacity:1" fill="#1267b2" d="M 319.5,120.5 C 319.833,120.5 320.167,120.5 320.5,120.5C 322.553,120.402 324.22,121.069 325.5,122.5C 323.102,122.741 321.102,122.074 319.5,120.5 Z"/></g>
<g><path style="opacity:1" fill="#074480" d="M 312.5,119.5 C 314.735,119.205 316.735,119.539 318.5,120.5C 316.833,120.5 315.167,120.5 313.5,120.5C 313.527,122.199 314.194,123.533 315.5,124.5C 312.941,124.61 310.608,123.944 308.5,122.5C 308.863,121.817 309.196,121.15 309.5,120.5C 310.791,120.737 311.791,120.404 312.5,119.5 Z"/></g>
<g><path style="opacity:1" fill="#3741cc" d="M 346.5,119.5 C 346.5,119.833 346.5,120.167 346.5,120.5C 343.774,120.264 341.441,121.097 339.5,123C 336.854,123.497 334.187,123.664 331.5,123.5C 330.209,123.737 329.209,123.404 328.5,122.5C 330.5,122.5 332.5,122.5 334.5,122.5C 334.5,121.5 334.5,120.5 334.5,119.5C 338.5,119.5 342.5,119.5 346.5,119.5 Z"/></g>
<g><path style="opacity:1" fill="#2f38b4" d="M 301.5,120.5 C 304.167,120.5 306.833,120.5 309.5,120.5C 309.196,121.15 308.863,121.817 308.5,122.5C 310.608,123.944 312.941,124.61 315.5,124.5C 315.833,124.5 316.167,124.5 316.5,124.5C 317.167,125.5 317.833,126.5 318.5,127.5C 316.5,127.5 314.5,127.5 312.5,127.5C 309.402,127.244 306.402,126.578 303.5,125.5C 302.498,123.989 301.831,122.322 301.5,120.5 Z"/></g>
<g><path style="opacity:1" fill="#11034f" d="M 291.5,123.5 C 287.658,123.892 283.991,124.892 280.5,126.5C 281.848,124.52 283.848,123.353 286.5,123C 288.387,122.22 290.054,122.387 291.5,123.5 Z"/></g>
<g><path style="opacity:1" fill="#185e9b" d="M 346.5,120.5 C 346.5,122.833 346.5,125.167 346.5,127.5C 343.15,127.665 339.817,127.498 336.5,127C 334.119,126.777 332.453,125.61 331.5,123.5C 334.187,123.664 336.854,123.497 339.5,123C 341.441,121.097 343.774,120.264 346.5,120.5 Z"/></g>
<g><path style="opacity:1" fill="#0b8fdd" d="M 316.5,124.5 C 319.631,123.908 321.964,124.908 323.5,127.5C 321.833,127.5 320.167,127.5 318.5,127.5C 317.833,126.5 317.167,125.5 316.5,124.5 Z"/></g>
<g><path style="opacity:1" fill="#556672" d="M 301.5,125.5 C 302.167,125.5 302.833,125.5 303.5,125.5C 306.402,126.578 309.402,127.244 312.5,127.5C 313.833,128.167 315.167,128.833 316.5,129.5C 313.833,129.5 311.167,129.5 308.5,129.5C 307.167,128.833 305.833,128.167 304.5,127.5C 303.5,126.833 302.5,126.167 301.5,125.5 Z"/></g>
<g><path style="opacity:1" fill="#948e71" d="M 66.5,103.5 C 66.3379,105.527 66.5045,107.527 67,109.5C 69.1468,111.479 70.6468,113.813 71.5,116.5C 72.4863,121.294 73.9863,125.96 76,130.5C 78.9861,126.773 80.3195,122.439 80,117.5C 80.49,118.793 80.6567,120.127 80.5,121.5C 80.5,125.833 80.5,130.167 80.5,134.5C 79.7321,133.737 79.2321,132.737 79,131.5C 78.5017,134.817 78.335,138.15 78.5,141.5C 77.2719,140.694 76.2719,139.694 75.5,138.5C 70.9893,128.796 66.9893,118.796 63.5,108.5C 65.7833,109.076 66.1166,108.076 64.5,105.5C 65.1667,104.833 65.8333,104.167 66.5,103.5 Z"/></g>
<g><path style="opacity:1" fill="#1413a1" d="M 291.5,123.5 C 291.833,123.5 292.167,123.5 292.5,123.5C 292.5,124.5 292.5,125.5 292.5,126.5C 290.143,126.337 287.81,126.503 285.5,127C 281.56,129.591 277.227,131.091 272.5,131.5C 273.306,130.272 274.306,129.272 275.5,128.5C 276.635,126.787 278.302,126.12 280.5,126.5C 283.991,124.892 287.658,123.892 291.5,123.5 Z"/></g>
<g><path style="opacity:1" fill="#826fb1" d="M 312.5,127.5 C 314.5,127.5 316.5,127.5 318.5,127.5C 320.167,127.5 321.833,127.5 323.5,127.5C 324.833,128.167 326.167,128.833 327.5,129.5C 325.167,129.5 322.833,129.5 320.5,129.5C 319.167,129.5 317.833,129.5 316.5,129.5C 315.167,128.833 313.833,128.167 312.5,127.5 Z"/></g>
<g><path style="opacity:1" fill="#39bcc3" d="M 318.5,120.5 C 318.833,120.5 319.167,120.5 319.5,120.5C 321.102,122.074 323.102,122.741 325.5,122.5C 326.5,122.5 327.5,122.5 328.5,122.5C 329.209,123.404 330.209,123.737 331.5,123.5C 332.453,125.61 334.119,126.777 336.5,127C 339.817,127.498 343.15,127.665 346.5,127.5C 346.5,129.833 346.5,132.167 346.5,134.5C 345.167,134.5 343.833,134.5 342.5,134.5C 337.99,131.779 332.99,130.112 327.5,129.5C 326.167,128.833 324.833,128.167 323.5,127.5C 321.964,124.908 319.631,123.908 316.5,124.5C 316.167,124.5 315.833,124.5 315.5,124.5C 314.194,123.533 313.527,122.199 313.5,120.5C 315.167,120.5 316.833,120.5 318.5,120.5 Z"/></g>
<g><path style="opacity:1" fill="#39b851" d="M 304.5,127.5 C 305.833,128.167 307.167,128.833 308.5,129.5C 308.5,130.167 308.5,130.833 308.5,131.5C 308.167,131.5 307.833,131.5 307.5,131.5C 305.708,130.691 303.708,130.191 301.5,130C 300.833,129.333 300.167,128.667 299.5,128C 301.134,127.506 302.801,127.34 304.5,127.5 Z"/></g>
<g><path style="opacity:1" fill="#60493f" d="M 257.5,110.5 C 258.167,110.5 258.5,110.833 258.5,111.5C 249.526,119.471 240.526,127.471 231.5,135.5C 231.5,134.833 231.167,134.5 230.5,134.5C 238.88,125.786 247.88,117.786 257.5,110.5 Z"/></g>
<g><path style="opacity:1" fill="#0479aa" d="M 294.5,126.5 C 294.833,126.5 295.167,126.5 295.5,126.5C 294.051,128.164 292.051,128.998 289.5,129C 290.337,130.011 290.67,131.178 290.5,132.5C 280.411,132.838 271.078,135.505 262.5,140.5C 261.153,141.028 259.819,141.195 258.5,141C 259.71,139.961 260.71,138.794 261.5,137.5C 261.833,137.5 262.167,137.5 262.5,137.5C 267.991,135.506 273.658,134.006 279.5,133C 284.317,130.254 289.317,128.087 294.5,126.5 Z"/></g>
<g><path style="opacity:1" fill="#d499bc" d="M 320.5,129.5 C 322.833,129.5 325.167,129.5 327.5,129.5C 332.99,130.112 337.99,131.779 342.5,134.5C 337.778,134.152 333.111,133.485 328.5,132.5C 325.603,131.871 322.936,130.871 320.5,129.5 Z"/></g>
<g><path style="opacity:1" fill="#8db021" d="M 308.5,129.5 C 311.167,129.5 313.833,129.5 316.5,129.5C 316.144,131.19 315.144,132.19 313.5,132.5C 311.833,132.5 310.167,132.5 308.5,132.5C 308.5,132.167 308.5,131.833 308.5,131.5C 308.5,130.833 308.5,130.167 308.5,129.5 Z"/></g>
<g><path style="opacity:1" fill="#88859f" d="M 58.5,122.5 C 60.3581,128.549 63.0248,134.216 66.5,139.5C 67.3543,141.035 67.3543,142.368 66.5,143.5C 66.1667,143.5 65.8333,143.5 65.5,143.5C 64.5324,140.9 63.1991,138.566 61.5,136.5C 60.2759,132.616 58.6092,128.95 56.5,125.5C 57.1174,125.611 57.6174,125.944 58,126.5C 58.49,125.207 58.6567,123.873 58.5,122.5 Z"/></g>
<g><path style="opacity:1" fill="#0b0d50" d="M 275.5,128.5 C 274.306,129.272 273.306,130.272 272.5,131.5C 268.622,132.573 265.289,134.573 262.5,137.5C 262.167,137.5 261.833,137.5 261.5,137.5C 261.167,137.5 260.833,137.5 260.5,137.5C 264.425,132.704 269.425,129.704 275.5,128.5 Z"/></g>
<g><path style="opacity:1" fill="#18918f" d="M 301.5,125.5 C 302.5,126.167 303.5,126.833 304.5,127.5C 302.801,127.34 301.134,127.506 299.5,128C 300.167,128.667 300.833,129.333 301.5,130C 303.708,130.191 305.708,130.691 307.5,131.5C 299.655,131.435 291.988,132.602 284.5,135C 277.922,137.791 271.255,140.291 264.5,142.5C 263.167,142.5 262.5,141.833 262.5,140.5C 271.078,135.505 280.411,132.838 290.5,132.5C 290.67,131.178 290.337,130.011 289.5,129C 292.051,128.998 294.051,128.164 295.5,126.5C 297.379,125.659 299.379,125.325 301.5,125.5 Z"/></g>
<g><path style="opacity:1" fill="#d4b46d" d="M 316.5,129.5 C 317.833,129.5 319.167,129.5 320.5,129.5C 322.936,130.871 325.603,131.871 328.5,132.5C 325.713,133.477 322.713,133.81 319.5,133.5C 317.5,133.5 315.5,133.5 313.5,133.5C 313.5,133.167 313.5,132.833 313.5,132.5C 315.144,132.19 316.144,131.19 316.5,129.5 Z"/></g>
<g><path style="opacity:1" fill="#0742a2" d="M 292.5,123.5 C 294.048,123.821 294.715,124.821 294.5,126.5C 289.317,128.087 284.317,130.254 279.5,133C 273.658,134.006 267.991,135.506 262.5,137.5C 265.289,134.573 268.622,132.573 272.5,131.5C 277.227,131.091 281.56,129.591 285.5,127C 287.81,126.503 290.143,126.337 292.5,126.5C 292.5,125.5 292.5,124.5 292.5,123.5 Z"/></g>
<g><path style="opacity:1" fill="#555e58" d="M 308.5,132.5 C 310.167,132.5 311.833,132.5 313.5,132.5C 313.5,132.833 313.5,133.167 313.5,133.5C 311.302,133.12 309.635,133.787 308.5,135.5C 306.167,135.5 303.833,135.5 301.5,135.5C 303.426,133.707 305.759,132.707 308.5,132.5 Z"/></g>
<g><path style="opacity:1" fill="#8983a7" d="M 313.5,133.5 C 315.5,133.5 317.5,133.5 319.5,133.5C 319.5,134.167 319.5,134.833 319.5,135.5C 315.846,135.942 312.179,136.276 308.5,136.5C 308.5,136.167 308.5,135.833 308.5,135.5C 309.635,133.787 311.302,133.12 313.5,133.5 Z"/></g>
<g><path style="opacity:1" fill="#513558" d="M 301.5,135.5 C 303.833,135.5 306.167,135.5 308.5,135.5C 308.5,135.833 308.5,136.167 308.5,136.5C 307.833,136.5 307.5,136.833 307.5,137.5C 305.5,137.5 303.5,137.5 301.5,137.5C 296.296,137.874 291.296,138.874 286.5,140.5C 287.808,139.768 289.142,138.934 290.5,138C 289.552,137.517 288.552,137.351 287.5,137.5C 292.01,136.659 296.676,135.992 301.5,135.5 Z"/></g>
<g><path style="opacity:1" fill="#468f64" d="M 61.5,117.5 C 62.1515,118.091 62.8182,118.757 63.5,119.5C 64.2975,119.043 64.6309,118.376 64.5,117.5C 66.4031,120.979 68.0698,124.646 69.5,128.5C 69.5564,133.389 70.5564,138.056 72.5,142.5C 70.3757,140.941 68.709,138.941 67.5,136.5C 64.7,130.433 62.7,124.099 61.5,117.5 Z"/></g>
<g><path style="opacity:1" fill="#937e72" d="M 319.5,135.5 C 322.097,135.721 322.097,136.221 319.5,137C 322.992,136.93 325.992,137.763 328.5,139.5C 321.124,139.274 313.791,139.608 306.5,140.5C 308.148,139.073 310.148,138.24 312.5,138C 310.866,137.506 309.199,137.34 307.5,137.5C 307.5,136.833 307.833,136.5 308.5,136.5C 312.179,136.276 315.846,135.942 319.5,135.5 Z"/></g>
<g><path style="opacity:1" fill="#dcbbc0" d="M 328.5,132.5 C 333.111,133.485 337.778,134.152 342.5,134.5C 343.833,134.5 345.167,134.5 346.5,134.5C 346.5,136.5 346.5,138.5 346.5,140.5C 340.509,140.034 334.509,139.701 328.5,139.5C 325.992,137.763 322.992,136.93 319.5,137C 322.097,136.221 322.097,135.721 319.5,135.5C 319.5,134.833 319.5,134.167 319.5,133.5C 322.713,133.81 325.713,133.477 328.5,132.5 Z"/></g>
<g><path style="opacity:1" fill="#e5dcc2" d="M 80.5,134.5 C 80.5,136.167 80.5,137.833 80.5,139.5C 80.6567,140.873 80.49,142.207 80,143.5C 79.7216,142.584 79.2216,141.918 78.5,141.5C 78.335,138.15 78.5017,134.817 79,131.5C 79.2321,132.737 79.7321,133.737 80.5,134.5 Z"/></g>
<g><path style="opacity:1" fill="#4b6271" d="M 67.5,136.5 C 68.709,138.941 70.3757,140.941 72.5,142.5C 72.3379,144.527 72.5045,146.527 73,148.5C 74.0486,151.187 75.5486,153.52 77.5,155.5C 77.5,155.833 77.5,156.167 77.5,156.5C 77.5,157.167 77.5,157.833 77.5,158.5C 76.197,156.858 74.8637,155.191 73.5,153.5C 72.1356,149.42 69.8023,146.087 66.5,143.5C 67.3543,142.368 67.3543,141.035 66.5,139.5C 66.5569,138.391 66.8902,137.391 67.5,136.5 Z"/></g>
<g><path style="opacity:1" fill="#5bae3e" d="M 69.5,128.5 C 71.2232,133.613 73.2232,138.613 75.5,143.5C 76.6392,146.004 77.3059,148.67 77.5,151.5C 75.6493,148.628 73.9827,145.628 72.5,142.5C 70.5564,138.056 69.5564,133.389 69.5,128.5 Z"/></g>
<g><path style="opacity:1" fill="#2f592f" d="M 307.5,131.5 C 307.833,131.5 308.167,131.5 308.5,131.5C 308.5,131.833 308.5,132.167 308.5,132.5C 305.759,132.707 303.426,133.707 301.5,135.5C 296.676,135.992 292.01,136.659 287.5,137.5C 274.866,140.924 263.199,146.257 252.5,153.5C 250.716,153.893 249.05,154.559 247.5,155.5C 246.054,154.387 244.387,154.22 242.5,155C 237.833,158.333 233.167,161.667 228.5,165C 227.552,165.483 226.552,165.649 225.5,165.5C 225.369,164.761 225.536,164.094 226,163.5C 229.692,160.635 233.192,157.635 236.5,154.5C 238.167,153.833 239.833,153.167 241.5,152.5C 244.741,154.139 247.408,153.305 249.5,150C 254.852,147.938 259.852,145.438 264.5,142.5C 271.255,140.291 277.922,137.791 284.5,135C 291.988,132.602 299.655,131.435 307.5,131.5 Z"/></g>
<g><path style="opacity:1" fill="#81532e" d="M 301.5,137.5 C 303.5,137.5 305.5,137.5 307.5,137.5C 309.199,137.34 310.866,137.506 312.5,138C 310.148,138.24 308.148,139.073 306.5,140.5C 306.167,140.5 305.833,140.5 305.5,140.5C 299.339,141.207 293.339,142.541 287.5,144.5C 292.167,142.167 296.833,139.833 301.5,137.5 Z"/></g>
<g><path style="opacity:1" fill="#7e63a2" d="M 328.5,139.5 C 334.509,139.701 340.509,140.034 346.5,140.5C 346.5,140.833 346.5,141.167 346.5,141.5C 344.5,141.5 342.5,141.5 340.5,141.5C 331.983,141.174 323.65,141.507 315.5,142.5C 315.167,142.5 314.833,142.5 314.5,142.5C 310.818,142.665 307.152,142.499 303.5,142C 304.416,141.722 305.082,141.222 305.5,140.5C 305.833,140.5 306.167,140.5 306.5,140.5C 313.791,139.608 321.124,139.274 328.5,139.5 Z"/></g>
<g><path style="opacity:1" fill="#797b7a" d="M 315.5,142.5 C 323.65,141.507 331.983,141.174 340.5,141.5C 335.04,142.737 329.373,143.404 323.5,143.5C 321.052,142.527 318.385,142.194 315.5,142.5 Z"/></g>
<g><path style="opacity:1" fill="#82634c" d="M 230.5,134.5 C 231.167,134.5 231.5,134.833 231.5,135.5C 227.842,140.136 224.175,144.803 220.5,149.5C 214.991,160.001 207.991,169.334 199.5,177.5C 202.323,171.2 206.156,165.533 211,160.5C 211.605,158.365 211.105,158.031 209.5,159.5C 215.784,150.551 222.784,142.217 230.5,134.5 Z"/></g>
<g><path style="opacity:1" fill="#b7a6ce" d="M 305.5,140.5 C 305.082,141.222 304.416,141.722 303.5,142C 307.152,142.499 310.818,142.665 314.5,142.5C 310.733,143.795 306.733,144.461 302.5,144.5C 296.164,145.838 289.831,147.172 283.5,148.5C 284.306,147.272 285.306,146.272 286.5,145.5C 286.5,144.833 286.833,144.5 287.5,144.5C 293.339,142.541 299.339,141.207 305.5,140.5 Z"/></g>
<g><path style="opacity:1" fill="#dcc785" d="M 61.5,136.5 C 63.1991,138.566 64.5324,140.9 65.5,143.5C 67.6775,147.168 70.3442,150.501 73.5,153.5C 74.8637,155.191 76.197,156.858 77.5,158.5C 79.3653,162.562 81.6986,166.396 84.5,170C 82.255,169.805 80.4216,168.638 79,166.5C 77.056,162.89 74.7226,159.557 72,156.5C 73.4286,160.047 74.9286,163.714 76.5,167.5C 76.5,167.833 76.5,168.167 76.5,168.5C 71.1077,160.062 65.941,151.395 61,142.5C 59.187,141.391 58.3537,142.058 58.5,144.5C 55.1213,137.999 53.1213,130.999 52.5,123.5C 52.3932,121.621 52.8932,121.288 54,122.5C 55.2278,127.962 57.7278,132.629 61.5,136.5 Z"/></g>
<g><path style="opacity:1" fill="#61529f" d="M 287.5,137.5 C 288.552,137.351 289.552,137.517 290.5,138C 289.142,138.934 287.808,139.768 286.5,140.5C 277.48,142.848 269.147,146.515 261.5,151.5C 258.378,152.561 255.378,153.895 252.5,155.5C 252.5,154.833 252.5,154.167 252.5,153.5C 263.199,146.257 274.866,140.924 287.5,137.5 Z"/></g>
<g><path style="opacity:1" fill="#0a0404" d="M 340.5,141.5 C 342.5,141.5 344.5,141.5 346.5,141.5C 346.5,160.167 346.5,178.833 346.5,197.5C 342.969,198.757 339.302,199.591 335.5,200C 334.619,200.708 333.953,201.542 333.5,202.5C 331.883,201.962 330.216,201.629 328.5,201.5C 328.5,202.5 328.5,203.5 328.5,204.5C 327.167,204.5 325.833,204.5 324.5,204.5C 322.856,204.714 321.356,204.38 320,203.5C 317.417,200.003 315.084,196.336 313,192.5C 313.594,194.509 313.427,196.509 312.5,198.5C 313.498,201.028 314.331,201.028 315,198.5C 317.05,203.714 320.55,207.38 325.5,209.5C 321.84,211.16 319.173,213.827 317.5,217.5C 316.85,217.804 316.183,218.137 315.5,218.5C 313.925,217.544 312.258,216.877 310.5,216.5C 310.5,216.167 310.5,215.833 310.5,215.5C 310.804,214.85 311.137,214.183 311.5,213.5C 309.784,212.451 308.451,211.118 307.5,209.5C 306.928,207.745 306.094,206.078 305,204.5C 303.887,203.289 302.72,203.289 301.5,204.5C 300.55,201.58 298.884,199.247 296.5,197.5C 294.359,195.878 292.692,193.878 291.5,191.5C 291.389,189.352 292.056,189.019 293.5,190.5C 294.583,189.635 294.749,188.635 294,187.5C 293,186.167 292,186.167 291,187.5C 290.583,186.244 289.75,185.577 288.5,185.5C 287.504,185.586 286.671,185.252 286,184.5C 285.098,182.073 284.264,179.74 283.5,177.5C 283.795,175.265 283.461,173.265 282.5,171.5C 282.467,167.898 283.801,164.898 286.5,162.5C 286.043,161.702 285.376,161.369 284.5,161.5C 286.167,158.833 287.833,156.167 289.5,153.5C 291.599,152.388 293.933,151.721 296.5,151.5C 296.938,151.435 297.272,151.601 297.5,152C 295.393,153.264 294.393,155.097 294.5,157.5C 296.099,157.768 297.432,157.434 298.5,156.5C 298.842,155.662 299.508,155.328 300.5,155.5C 303.478,153.652 303.812,151.652 301.5,149.5C 306.609,147.953 311.609,146.286 316.5,144.5C 318.95,144.702 321.283,144.369 323.5,143.5C 329.373,143.404 335.04,142.737 340.5,141.5 Z"/></g>
<g><path style="opacity:1" fill="#50a39b" d="M 65.5,143.5 C 65.8333,143.5 66.1667,143.5 66.5,143.5C 69.8023,146.087 72.1356,149.42 73.5,153.5C 70.3442,150.501 67.6775,147.168 65.5,143.5 Z"/></g>
<g><path style="opacity:1" fill="#409c88" d="M 72.5,142.5 C 73.9827,145.628 75.6493,148.628 77.5,151.5C 77.5,152.833 77.5,154.167 77.5,155.5C 75.5486,153.52 74.0486,151.187 73,148.5C 72.5045,146.527 72.3379,144.527 72.5,142.5 Z"/></g>
<g><path style="opacity:1" fill="#085560" d="M 260.5,137.5 C 260.833,137.5 261.167,137.5 261.5,137.5C 260.71,138.794 259.71,139.961 258.5,141C 259.819,141.195 261.153,141.028 262.5,140.5C 262.5,141.833 263.167,142.5 264.5,142.5C 259.852,145.438 254.852,147.938 249.5,150C 247.408,153.305 244.741,154.139 241.5,152.5C 247.652,147.259 253.985,142.259 260.5,137.5 Z"/></g>
<g><path style="opacity:1" fill="#b19ca1" d="M 316.5,144.5 C 311.609,146.286 306.609,147.953 301.5,149.5C 299.597,149.796 297.93,150.463 296.5,151.5C 293.933,151.721 291.599,152.388 289.5,153.5C 288.167,153.833 286.833,154.167 285.5,154.5C 285.158,153.662 284.492,153.328 283.5,153.5C 294.098,149.431 305.098,146.431 316.5,144.5 Z"/></g>
<g><path style="opacity:1" fill="#352116" d="M 301.5,137.5 C 296.833,139.833 292.167,142.167 287.5,144.5C 286.833,144.5 286.5,144.833 286.5,145.5C 279.191,147.32 272.191,149.987 265.5,153.5C 263.517,153.843 262.183,153.176 261.5,151.5C 269.147,146.515 277.48,142.848 286.5,140.5C 291.296,138.874 296.296,137.874 301.5,137.5 Z"/></g>
<g><path style="opacity:1" fill="#a8cc98" d="M 314.5,142.5 C 314.833,142.5 315.167,142.5 315.5,142.5C 318.385,142.194 321.052,142.527 323.5,143.5C 321.283,144.369 318.95,144.702 316.5,144.5C 305.098,146.431 294.098,149.431 283.5,153.5C 279.873,154.321 276.54,155.654 273.5,157.5C 270.833,158.5 268.167,159.5 265.5,160.5C 264.368,159.646 263.035,159.646 261.5,160.5C 262.058,159.21 263.058,158.377 264.5,158C 277.239,153.166 289.906,148.666 302.5,144.5C 306.733,144.461 310.733,143.795 314.5,142.5 Z"/></g>
<g><path style="opacity:1" fill="#670a7b" d="M 301.5,149.5 C 303.812,151.652 303.478,153.652 300.5,155.5C 299.753,151.807 298.42,151.807 296.5,155.5C 296.957,156.298 297.624,156.631 298.5,156.5C 297.432,157.434 296.099,157.768 294.5,157.5C 294.393,155.097 295.393,153.264 297.5,152C 297.272,151.601 296.938,151.435 296.5,151.5C 297.93,150.463 299.597,149.796 301.5,149.5 Z"/></g>
<g><path style="opacity:1" fill="#b500e9" d="M 300.5,155.5 C 299.508,155.328 298.842,155.662 298.5,156.5C 297.624,156.631 296.957,156.298 296.5,155.5C 298.42,151.807 299.753,151.807 300.5,155.5 Z"/></g>
<g><path style="opacity:1" fill="#c0a8d4" d="M 283.5,153.5 C 284.492,153.328 285.158,153.662 285.5,154.5C 283.81,154.856 282.81,155.856 282.5,157.5C 281.167,157.833 279.833,158.167 278.5,158.5C 277.167,158.833 275.833,159.167 274.5,159.5C 276.031,158.075 275.698,157.409 273.5,157.5C 276.54,155.654 279.873,154.321 283.5,153.5 Z"/></g>
<g><path style="opacity:1" fill="#4c82cb" d="M 252.5,153.5 C 252.5,154.167 252.5,154.833 252.5,155.5C 252.5,156.167 252.167,156.5 251.5,156.5C 246.833,158.5 242.167,160.5 237.5,162.5C 240.446,159.687 243.779,157.354 247.5,155.5C 249.05,154.559 250.716,153.893 252.5,153.5 Z"/></g>
<g><path style="opacity:1" fill="#b5d5e2" d="M 302.5,144.5 C 289.906,148.666 277.239,153.166 264.5,158C 263.058,158.377 262.058,159.21 261.5,160.5C 255.286,163.433 249.619,167.1 244.5,171.5C 241.792,173.353 238.792,174.353 235.5,174.5C 249.055,164.218 263.721,155.718 279.5,149C 280.793,148.51 282.127,148.343 283.5,148.5C 289.831,147.172 296.164,145.838 302.5,144.5 Z"/></g>
<g><path style="opacity:1" fill="#cdb364" d="M 58.5,145.5 C 64.2225,155.266 70.2225,164.932 76.5,174.5C 77.9833,178.298 79.65,181.964 81.5,185.5C 80.5,184.833 79.5,184.167 78.5,183.5C 73.2484,175.332 68.2484,166.999 63.5,158.5C 61.336,154.344 59.6693,150.01 58.5,145.5 Z"/></g>
<g><path style="opacity:1" fill="#2e1d1f" d="M 261.5,151.5 C 262.183,153.176 263.517,153.843 265.5,153.5C 252.613,160.619 239.946,168.286 227.5,176.5C 226.833,176.5 226.5,176.167 226.5,175.5C 230.306,168.395 236.306,163.895 244.5,162C 247.107,160.428 249.441,158.594 251.5,156.5C 252.167,156.5 252.5,156.167 252.5,155.5C 255.378,153.895 258.378,152.561 261.5,151.5 Z"/></g>
<g><path style="opacity:1" fill="#cbb57d" d="M 75.5,138.5 C 76.2719,139.694 77.2719,140.694 78.5,141.5C 79.2216,141.918 79.7216,142.584 80,143.5C 80.49,142.207 80.6567,140.873 80.5,139.5C 82.1445,146.405 83.9779,153.405 86,160.5C 88.4353,165.038 90.602,169.704 92.5,174.5C 86.8879,169.147 81.8879,163.147 77.5,156.5C 77.5,156.167 77.5,155.833 77.5,155.5C 77.5,154.167 77.5,152.833 77.5,151.5C 77.3059,148.67 76.6392,146.004 75.5,143.5C 75.5,141.833 75.5,140.167 75.5,138.5 Z"/></g>
<g><path style="opacity:1" fill="#246e55" d="M 289.5,153.5 C 287.833,156.167 286.167,158.833 284.5,161.5C 282.884,163.738 281.551,166.071 280.5,168.5C 278.927,164.535 279.593,160.868 282.5,157.5C 282.81,155.856 283.81,154.856 285.5,154.5C 286.833,154.167 288.167,153.833 289.5,153.5 Z"/></g>
<g><path style="opacity:1" fill="#decbbf" d="M 76.5,168.5 C 77.7416,170.611 77.7416,172.611 76.5,174.5C 70.2225,164.932 64.2225,155.266 58.5,145.5C 58.5,145.167 58.5,144.833 58.5,144.5C 58.3537,142.058 59.187,141.391 61,142.5C 65.941,151.395 71.1077,160.062 76.5,168.5 Z"/></g>
<g><path style="opacity:1" fill="#179c5d" d="M 247.5,155.5 C 243.779,157.354 240.446,159.687 237.5,162.5C 233.583,164.412 229.917,166.745 226.5,169.5C 225.761,169.631 225.094,169.464 224.5,169C 225.337,167.989 225.67,166.822 225.5,165.5C 226.552,165.649 227.552,165.483 228.5,165C 233.167,161.667 237.833,158.333 242.5,155C 244.387,154.22 246.054,154.387 247.5,155.5 Z"/></g>
<g><path style="opacity:1" fill="#116c92" d="M 284.5,161.5 C 285.376,161.369 286.043,161.702 286.5,162.5C 283.801,164.898 282.467,167.898 282.5,171.5C 281.833,171.5 281.167,171.5 280.5,171.5C 280.5,170.5 280.5,169.5 280.5,168.5C 281.551,166.071 282.884,163.738 284.5,161.5 Z"/></g>
<g><path style="opacity:1" fill="#ae9c74" d="M 63.5,158.5 C 68.2484,166.999 73.2484,175.332 78.5,183.5C 78.5,184.167 78.5,184.833 78.5,185.5C 78.6716,186.492 78.3382,187.158 77.5,187.5C 72.0447,178.255 67.3781,168.588 63.5,158.5 Z"/></g>
<g><path style="opacity:1" fill="#4e4d87" d="M 251.5,156.5 C 249.441,158.594 247.107,160.428 244.5,162C 236.306,163.895 230.306,168.395 226.5,175.5C 221.779,178.614 216.945,181.614 212,184.5C 211.601,184.272 211.435,183.938 211.5,183.5C 216.795,179.54 221.795,175.207 226.5,170.5C 226.5,170.167 226.5,169.833 226.5,169.5C 229.917,166.745 233.583,164.412 237.5,162.5C 242.167,160.5 246.833,158.5 251.5,156.5 Z"/></g>
<g><path style="opacity:1" fill="#e095e3" d="M 273.5,157.5 C 275.698,157.409 276.031,158.075 274.5,159.5C 266.353,162.739 258.686,166.739 251.5,171.5C 250.833,171.833 250.167,172.167 249.5,172.5C 249.158,171.662 248.492,171.328 247.5,171.5C 253.13,167.346 259.13,163.679 265.5,160.5C 268.167,159.5 270.833,158.5 273.5,157.5 Z"/></g>
<g><path style="opacity:1" fill="#835caa" d="M 286.5,145.5 C 285.306,146.272 284.306,147.272 283.5,148.5C 282.127,148.343 280.793,148.51 279.5,149C 263.721,155.718 249.055,164.218 235.5,174.5C 231.164,176.332 227.164,178.665 223.5,181.5C 219.074,184.594 214.407,187.261 209.5,189.5C 208.833,189.5 208.167,189.5 207.5,189.5C 214.167,185.167 220.833,180.833 227.5,176.5C 239.946,168.286 252.613,160.619 265.5,153.5C 272.191,149.987 279.191,147.32 286.5,145.5 Z"/></g>
<g><path style="opacity:1" fill="#9ca3a9" d="M 282.5,157.5 C 279.593,160.868 278.927,164.535 280.5,168.5C 280.5,169.5 280.5,170.5 280.5,171.5C 280.5,171.833 280.5,172.167 280.5,172.5C 280.5,174.5 280.5,176.5 280.5,178.5C 277.37,175.438 275.37,171.771 274.5,167.5C 275.066,165.922 276.066,164.588 277.5,163.5C 278.452,161.955 278.785,160.288 278.5,158.5C 279.833,158.167 281.167,157.833 282.5,157.5 Z"/></g>
<g><path style="opacity:1" fill="#0a1725" d="M 236.5,154.5 C 233.192,157.635 229.692,160.635 226,163.5C 225.536,164.094 225.369,164.761 225.5,165.5C 225.167,165.5 224.833,165.5 224.5,165.5C 218.902,169.091 213.569,173.091 208.5,177.5C 209.167,175.833 209.833,174.167 210.5,172.5C 211.708,171.766 213.041,171.433 214.5,171.5C 214.33,170.178 214.663,169.011 215.5,168C 224.5,160.333 233.5,152.667 242.5,145C 243.833,144.333 245.167,144.333 246.5,145C 243.297,148.371 239.964,151.538 236.5,154.5 Z"/></g>
<g><path style="opacity:1" fill="#eed67f" d="M 265.5,160.5 C 259.13,163.679 253.13,167.346 247.5,171.5C 247.167,171.5 246.833,171.5 246.5,171.5C 245.833,171.5 245.167,171.5 244.5,171.5C 249.619,167.1 255.286,163.433 261.5,160.5C 263.035,159.646 264.368,159.646 265.5,160.5 Z"/></g>
<g><path style="opacity:1" fill="#145e27" d="M 280.5,172.5 C 280.5,172.167 280.5,171.833 280.5,171.5C 281.167,171.5 281.833,171.5 282.5,171.5C 283.461,173.265 283.795,175.265 283.5,177.5C 282.687,175.739 281.687,174.072 280.5,172.5 Z"/></g>
<g><path style="opacity:1" fill="#586c5c" d="M 278.5,158.5 C 278.785,160.288 278.452,161.955 277.5,163.5C 276.066,164.588 275.066,165.922 274.5,167.5C 273.861,168.097 273.528,168.93 273.5,170C 274.806,173.417 275.806,176.917 276.5,180.5C 275.122,181.545 274.122,182.878 273.5,184.5C 272.349,182.221 271.349,179.888 270.5,177.5C 270.767,171.219 272.1,165.219 274.5,159.5C 275.833,159.167 277.167,158.833 278.5,158.5 Z"/></g>
<g><path style="opacity:1" fill="#82a0ab" d="M 274.5,159.5 C 272.1,165.219 270.767,171.219 270.5,177.5C 269.312,178.684 268.145,178.684 267,177.5C 266.71,175.048 266.044,172.715 265,170.5C 264.503,174.524 264.669,178.524 265.5,182.5C 264.833,185.167 264.167,185.167 263.5,182.5C 262.597,179.609 262.264,176.609 262.5,173.5C 263.009,170.808 264.009,168.308 265.5,166C 265.167,165.833 264.833,165.667 264.5,165.5C 261.139,167.511 257.806,169.511 254.5,171.5C 253.5,171.5 252.5,171.5 251.5,171.5C 258.686,166.739 266.353,162.739 274.5,159.5 Z"/></g>
<g><path style="opacity:1" fill="#370b00" d="M 329.5,175.5 C 332.874,175.674 336.207,176.174 339.5,177C 339.957,177.414 340.291,177.914 340.5,178.5C 337.894,179.652 335.227,179.818 332.5,179C 330.937,178.241 329.937,177.074 329.5,175.5 Z"/></g>
<g><path style="opacity:1" fill="#3c81a9" d="M 226.5,170.5 C 221.795,175.207 216.795,179.54 211.5,183.5C 209.052,185.284 206.385,186.618 203.5,187.5C 210.88,181.455 218.546,175.788 226.5,170.5 Z"/></g>
<g><path style="opacity:1" fill="#d671e4" d="M 246.5,171.5 C 246.833,171.5 247.167,171.5 247.5,171.5C 248.492,171.328 249.158,171.662 249.5,172.5C 245.334,175.417 241.001,178.084 236.5,180.5C 235.5,180.5 234.5,180.5 233.5,180.5C 237.558,177.11 241.891,174.11 246.5,171.5 Z"/></g>
<g><path style="opacity:1" fill="#755d53" d="M 210.5,172.5 C 209.833,174.167 209.167,175.833 208.5,177.5C 205.126,180.51 201.792,183.51 198.5,186.5C 197.833,186.833 197.167,187.167 196.5,187.5C 196.631,186.624 196.298,185.957 195.5,185.5C 194.084,187.139 192.417,187.973 190.5,188C 191.328,186.008 192.661,184.508 194.5,183.5C 194.897,184.525 195.563,184.692 196.5,184C 200.677,179.433 205.343,175.6 210.5,172.5 Z"/></g>
<g><path style="opacity:1" fill="#54a01e" d="M 280.5,172.5 C 281.687,174.072 282.687,175.739 283.5,177.5C 284.264,179.74 285.098,182.073 286,184.5C 286.671,185.252 287.504,185.586 288.5,185.5C 288.5,186.833 287.833,187.5 286.5,187.5C 285.883,187.611 285.383,187.944 285,188.5C 284.098,186.569 282.931,184.903 281.5,183.5C 280.962,181.883 280.629,180.216 280.5,178.5C 280.5,176.5 280.5,174.5 280.5,172.5 Z"/></g>
<g><path style="opacity:1" fill="#d6c7aa" d="M 244.5,171.5 C 245.167,171.5 245.833,171.5 246.5,171.5C 241.891,174.11 237.558,177.11 233.5,180.5C 229.293,182.435 225.627,185.102 222.5,188.5C 221.833,188.5 221.167,188.5 220.5,188.5C 216.967,189.374 213.634,190.707 210.5,192.5C 215.084,188.53 220.084,185.03 225.5,182C 224.906,181.536 224.239,181.369 223.5,181.5C 227.164,178.665 231.164,176.332 235.5,174.5C 238.792,174.353 241.792,173.353 244.5,171.5 Z"/></g>
<g><path style="opacity:1" fill="#15a29a" d="M 224.5,165.5 C 224.833,165.5 225.167,165.5 225.5,165.5C 225.67,166.822 225.337,167.989 224.5,169C 225.094,169.464 225.761,169.631 226.5,169.5C 226.5,169.833 226.5,170.167 226.5,170.5C 218.546,175.788 210.88,181.455 203.5,187.5C 200.716,189.396 197.716,191.063 194.5,192.5C 194.167,192.333 193.833,192.167 193.5,192C 195.54,189.664 197.873,187.831 200.5,186.5C 207.625,181.214 214.625,175.714 221.5,170C 223.141,168.871 224.141,167.371 224.5,165.5 Z"/></g>
<g><path style="opacity:1" fill="#413050" d="M 226.5,175.5 C 226.5,176.167 226.833,176.5 227.5,176.5C 220.833,180.833 214.167,185.167 207.5,189.5C 206.833,189.833 206.167,190.167 205.5,190.5C 204.737,189.732 203.737,189.232 202.5,189C 203.056,188.617 203.389,188.117 203.5,187.5C 206.385,186.618 209.052,185.284 211.5,183.5C 211.435,183.938 211.601,184.272 212,184.5C 216.945,181.614 221.779,178.614 226.5,175.5 Z"/></g>
<g><path style="opacity:1" fill="#4b92d2" d="M 224.5,165.5 C 224.141,167.371 223.141,168.871 221.5,170C 214.625,175.714 207.625,181.214 200.5,186.5C 199.833,186.5 199.167,186.5 198.5,186.5C 201.792,183.51 205.126,180.51 208.5,177.5C 213.569,173.091 218.902,169.091 224.5,165.5 Z"/></g>
<g><path style="opacity:1" fill="#ebb776" d="M 76.5,167.5 C 80.1667,170.5 83.5,173.833 86.5,177.5C 88.5258,180.518 90.5258,183.518 92.5,186.5C 94.2941,188.797 96.2941,190.963 98.5,193C 97.9056,193.464 97.2389,193.631 96.5,193.5C 93.0359,190.538 89.7025,187.371 86.5,184C 85.365,183.251 84.365,183.417 83.5,184.5C 88.3207,189.497 92.6541,194.831 96.5,200.5C 95.8333,200.5 95.1667,200.5 94.5,200.5C 89.7932,195.795 85.4599,190.795 81.5,185.5C 79.65,181.964 77.9833,178.298 76.5,174.5C 77.7416,172.611 77.7416,170.611 76.5,168.5C 76.5,168.167 76.5,167.833 76.5,167.5 Z"/></g>
<g><path style="opacity:1" fill="#b69c5e" d="M 276.5,180.5 C 277.611,183.907 279.444,186.907 282,189.5C 282.18,187.512 282.014,185.512 281.5,183.5C 282.931,184.903 284.098,186.569 285,188.5C 285.383,187.944 285.883,187.611 286.5,187.5C 286.833,189.833 288.167,191.167 290.5,191.5C 290.008,193.819 289.008,195.819 287.5,197.5C 285.696,195.533 283.696,193.699 281.5,192C 280.552,191.517 279.552,191.351 278.5,191.5C 277.189,188.865 275.522,186.531 273.5,184.5C 274.122,182.878 275.122,181.545 276.5,180.5 Z"/></g>
<g><path style="opacity:1" fill="#755575" d="M 274.5,167.5 C 275.37,171.771 277.37,175.438 280.5,178.5C 280.629,180.216 280.962,181.883 281.5,183.5C 282.014,185.512 282.18,187.512 282,189.5C 279.444,186.907 277.611,183.907 276.5,180.5C 275.806,176.917 274.806,173.417 273.5,170C 273.528,168.93 273.861,168.097 274.5,167.5 Z"/></g>
<g><path style="opacity:1" fill="#8684e6" d="M 233.5,180.5 C 234.5,180.5 235.5,180.5 236.5,180.5C 232.746,184.548 228.413,187.882 223.5,190.5C 222.833,190.5 222.167,190.5 221.5,190.5C 221.833,189.833 222.167,189.167 222.5,188.5C 225.627,185.102 229.293,182.435 233.5,180.5 Z"/></g>
<g><path style="opacity:1" fill="#d6bca4" d="M 77.5,158.5 C 77.5,157.833 77.5,157.167 77.5,156.5C 81.8879,163.147 86.8879,169.147 92.5,174.5C 98.7224,183.316 106.389,190.816 115.5,197C 123.904,202.968 133.238,206.468 143.5,207.5C 143.5,207.833 143.5,208.167 143.5,208.5C 141.143,208.337 138.81,208.503 136.5,209C 137.056,209.383 137.389,209.883 137.5,210.5C 135.144,209.425 132.811,209.425 130.5,210.5C 131.167,211.167 131.833,211.833 132.5,212.5C 128.133,212.636 124.8,210.636 122.5,206.5C 122.5,206.167 122.5,205.833 122.5,205.5C 123.552,205.649 124.552,205.483 125.5,205C 117.366,201.1 109.7,196.433 102.5,191C 96.6462,186.646 91.6462,181.48 87.5,175.5C 86.7025,175.957 86.3691,176.624 86.5,177.5C 83.5,173.833 80.1667,170.5 76.5,167.5C 74.9286,163.714 73.4286,160.047 72,156.5C 74.7226,159.557 77.056,162.89 79,166.5C 80.4216,168.638 82.255,169.805 84.5,170C 81.6986,166.396 79.3653,162.562 77.5,158.5 Z"/></g>
<g><path style="opacity:1" fill="#6aa150" d="M 78.5,183.5 C 79.5,184.167 80.5,184.833 81.5,185.5C 85.4599,190.795 89.7932,195.795 94.5,200.5C 91.9066,199.246 89.5732,197.58 87.5,195.5C 85.5,193.167 83.5,190.833 81.5,188.5C 80.8333,187.167 79.8333,186.167 78.5,185.5C 78.5,184.833 78.5,184.167 78.5,183.5 Z"/></g>
<g><path style="opacity:1" fill="#a6aecf" d="M 270.5,177.5 C 271.349,179.888 272.349,182.221 273.5,184.5C 275.522,186.531 277.189,188.865 278.5,191.5C 278.5,191.833 278.5,192.167 278.5,192.5C 276.983,192.511 275.816,193.177 275,194.5C 273.667,193.167 272.333,191.833 271,190.5C 270.293,186.665 269.126,182.998 267.5,179.5C 266.614,180.325 266.281,181.325 266.5,182.5C 266.167,182.5 265.833,182.5 265.5,182.5C 264.669,178.524 264.503,174.524 265,170.5C 266.044,172.715 266.71,175.048 267,177.5C 268.145,178.684 269.312,178.684 270.5,177.5 Z"/></g>
<g><path style="opacity:1" fill="#4a443e" d="M 288.5,185.5 C 289.75,185.577 290.583,186.244 291,187.5C 292,186.167 293,186.167 294,187.5C 294.749,188.635 294.583,189.635 293.5,190.5C 292.056,189.019 291.389,189.352 291.5,191.5C 291.167,191.5 290.833,191.5 290.5,191.5C 288.167,191.167 286.833,189.833 286.5,187.5C 287.833,187.5 288.5,186.833 288.5,185.5 Z"/></g>
<g><path style="opacity:1" fill="#32303b" d="M 81.5,188.5 C 83.5,190.833 85.5,193.167 87.5,195.5C 86.8333,195.5 86.5,195.833 86.5,196.5C 83.1704,194.451 81.5037,191.785 81.5,188.5 Z"/></g>
<g><path style="opacity:1" fill="#decfc4" d="M 122.5,205.5 C 116.523,203.515 111.19,200.515 106.5,196.5C 101.79,194.629 98.1237,191.463 95.5,187C 94.552,186.517 93.552,186.351 92.5,186.5C 90.5258,183.518 88.5258,180.518 86.5,177.5C 86.3691,176.624 86.7025,175.957 87.5,175.5C 91.6462,181.48 96.6462,186.646 102.5,191C 109.7,196.433 117.366,201.1 125.5,205C 124.552,205.483 123.552,205.649 122.5,205.5 Z"/></g>
<g><path style="opacity:1" fill="#4eb4a4" d="M 251.5,171.5 C 252.5,171.5 253.5,171.5 254.5,171.5C 253.694,172.728 252.694,173.728 251.5,174.5C 237.329,184.085 222.996,193.419 208.5,202.5C 205.659,202.56 202.993,203.226 200.5,204.5C 199.209,204.737 198.209,204.404 197.5,203.5C 201.105,202.015 204.772,200.681 208.5,199.5C 210.308,199.509 211.975,199.009 213.5,198C 217.08,195.723 220.414,193.223 223.5,190.5C 228.413,187.882 232.746,184.548 236.5,180.5C 241.001,178.084 245.334,175.417 249.5,172.5C 250.167,172.167 250.833,171.833 251.5,171.5 Z"/></g>
<g><path style="opacity:1" fill="#ccbf76" d="M 223.5,181.5 C 224.239,181.369 224.906,181.536 225.5,182C 220.084,185.03 215.084,188.53 210.5,192.5C 209.508,192.328 208.842,192.662 208.5,193.5C 205.791,194.013 203.291,195.013 201,196.5C 200.235,196.43 199.735,196.097 199.5,195.5C 202.833,193.5 206.167,191.5 209.5,189.5C 214.407,187.261 219.074,184.594 223.5,181.5 Z"/></g>
<g><path style="opacity:1" fill="#554052" d="M 220.5,188.5 C 215.723,191.736 211.056,195.236 206.5,199C 205.552,199.483 204.552,199.649 203.5,199.5C 205.139,198.527 206.473,197.194 207.5,195.5C 207.833,194.833 208.167,194.167 208.5,193.5C 208.842,192.662 209.508,192.328 210.5,192.5C 213.634,190.707 216.967,189.374 220.5,188.5 Z"/></g>
<g><path style="opacity:1" fill="#9f9b98" d="M 251.5,174.5 C 242.191,182.137 232.858,189.803 223.5,197.5C 223.631,196.624 223.298,195.957 222.5,195.5C 218.657,199.722 213.99,202.055 208.5,202.5C 222.996,193.419 237.329,184.085 251.5,174.5 Z"/></g>
<g><path style="opacity:1" fill="#9e7994" d="M 263.5,182.5 C 264.167,185.167 264.833,185.167 265.5,182.5C 265.833,182.5 266.167,182.5 266.5,182.5C 266.872,186.404 267.206,190.404 267.5,194.5C 265.017,191.654 263.351,188.32 262.5,184.5C 262.543,183.584 262.876,182.917 263.5,182.5 Z"/></g>
<g><path style="opacity:1" fill="#497f7d" d="M 198.5,186.5 C 199.167,186.5 199.833,186.5 200.5,186.5C 197.873,187.831 195.54,189.664 193.5,192C 193.833,192.167 194.167,192.333 194.5,192.5C 197.716,191.063 200.716,189.396 203.5,187.5C 203.389,188.117 203.056,188.617 202.5,189C 203.737,189.232 204.737,189.732 205.5,190.5C 201.291,192.771 196.958,194.771 192.5,196.5C 192.265,195.903 191.765,195.57 191,195.5C 189.2,196.32 187.366,196.986 185.5,197.5C 188.49,193.514 192.157,190.18 196.5,187.5C 197.167,187.167 197.833,186.833 198.5,186.5 Z"/></g>
<g><path style="opacity:1" fill="#9c99bf" d="M 207.5,189.5 C 208.167,189.5 208.833,189.5 209.5,189.5C 206.167,191.5 202.833,193.5 199.5,195.5C 196.841,196.732 194.174,197.565 191.5,198C 192.056,197.617 192.389,197.117 192.5,196.5C 196.958,194.771 201.291,192.771 205.5,190.5C 206.167,190.167 206.833,189.833 207.5,189.5 Z"/></g>
<g><path style="opacity:1" fill="#349ad7" d="M 221.5,190.5 C 222.167,190.5 222.833,190.5 223.5,190.5C 220.414,193.223 217.08,195.723 213.5,198C 211.975,199.009 210.308,199.509 208.5,199.5C 212.273,195.773 216.606,192.773 221.5,190.5 Z"/></g>
<g><path style="opacity:1" fill="#a5a0e2" d="M 278.5,192.5 C 278.744,195.263 280.077,197.429 282.5,199C 279.022,200.381 276.022,202.215 273.5,204.5C 270.481,201.797 268.481,198.464 267.5,194.5C 267.206,190.404 266.872,186.404 266.5,182.5C 266.281,181.325 266.614,180.325 267.5,179.5C 269.126,182.998 270.293,186.665 271,190.5C 272.333,191.833 273.667,193.167 275,194.5C 275.816,193.177 276.983,192.511 278.5,192.5 Z"/></g>
<g><path style="opacity:1" fill="#c6b5b9" d="M 278.5,192.5 C 278.5,192.167 278.5,191.833 278.5,191.5C 279.552,191.351 280.552,191.517 281.5,192C 283.696,193.699 285.696,195.533 287.5,197.5C 288.867,200.132 289.701,199.798 290,196.5C 290.985,197.814 292.152,198.814 293.5,199.5C 293.081,202.325 294.081,204.491 296.5,206C 293.735,205.28 291.401,203.613 289.5,201C 288.563,200.308 287.897,200.475 287.5,201.5C 284.14,198.806 281.14,195.806 278.5,192.5 Z"/></g>
<g><path style="opacity:1" fill="#9b6b44" d="M 207.5,195.5 C 206.473,197.194 205.139,198.527 203.5,199.5C 200.076,200.959 196.576,202.292 193,203.5C 192.5,203.333 192,203.167 191.5,203C 194.527,201.487 197.527,199.987 200.5,198.5C 202.713,197.227 205.046,196.227 207.5,195.5 Z"/></g>
<g><path style="opacity:1" fill="#6b3e14" d="M 324.5,204.5 C 324.756,206.776 326.09,207.943 328.5,208C 327.756,209.039 326.756,209.539 325.5,209.5C 320.55,207.38 317.05,203.714 315,198.5C 314.331,201.028 313.498,201.028 312.5,198.5C 313.427,196.509 313.594,194.509 313,192.5C 315.084,196.336 317.417,200.003 320,203.5C 321.356,204.38 322.856,204.714 324.5,204.5 Z"/></g>
<g><path style="opacity:1" fill="#7a58c1" d="M 86.5,196.5 C 86.5,195.833 86.8333,195.5 87.5,195.5C 89.5732,197.58 91.9066,199.246 94.5,200.5C 96.1667,202.5 97.8333,204.5 99.5,206.5C 98.209,206.263 97.209,206.596 96.5,207.5C 93.8676,203.266 90.5343,199.599 86.5,196.5 Z"/></g>
<g><path style="opacity:1" fill="#ae9d7f" d="M 199.5,177.5 C 197.833,179.5 196.167,181.5 194.5,183.5C 192.661,184.508 191.328,186.008 190.5,188C 192.417,187.973 194.084,187.139 195.5,185.5C 196.298,185.957 196.631,186.624 196.5,187.5C 192.157,190.18 188.49,193.514 185.5,197.5C 183.118,198.351 181.118,199.684 179.5,201.5C 174.324,203.261 169.324,205.261 164.5,207.5C 163.508,207.328 162.842,207.662 162.5,208.5C 157.167,208.5 151.833,208.5 146.5,208.5C 145.5,208.5 144.5,208.5 143.5,208.5C 143.5,208.167 143.5,207.833 143.5,207.5C 154.408,208.023 164.741,205.856 174.5,201C 179.667,196.5 184.5,191.667 189,186.5C 195.854,177.432 202.687,168.432 209.5,159.5C 211.105,158.031 211.605,158.365 211,160.5C 206.156,165.533 202.323,171.2 199.5,177.5 Z"/></g>
<g><path style="opacity:1" fill="#85c5ac" d="M 208.5,193.5 C 208.167,194.167 207.833,194.833 207.5,195.5C 205.046,196.227 202.713,197.227 200.5,198.5C 196.519,198.295 192.852,199.629 189.5,202.5C 188.833,202.5 188.167,202.5 187.5,202.5C 184.904,201.735 182.237,201.401 179.5,201.5C 181.118,199.684 183.118,198.351 185.5,197.5C 187.366,196.986 189.2,196.32 191,195.5C 191.765,195.57 192.265,195.903 192.5,196.5C 192.389,197.117 192.056,197.617 191.5,198C 194.174,197.565 196.841,196.732 199.5,195.5C 199.735,196.097 200.235,196.43 201,196.5C 203.291,195.013 205.791,194.013 208.5,193.5 Z"/></g>
<g><path style="opacity:1" fill="#a78484" d="M 290.5,191.5 C 290.833,191.5 291.167,191.5 291.5,191.5C 292.692,193.878 294.359,195.878 296.5,197.5C 296.5,198.167 296.5,198.833 296.5,199.5C 296.631,200.239 296.464,200.906 296,201.5C 295.292,200.619 294.458,199.953 293.5,199.5C 292.152,198.814 290.985,197.814 290,196.5C 289.701,199.798 288.867,200.132 287.5,197.5C 289.008,195.819 290.008,193.819 290.5,191.5 Z"/></g>
<g><path style="opacity:1" fill="#402e35" d="M 346.5,197.5 C 346.5,198.833 346.5,200.167 346.5,201.5C 343.167,202.167 339.833,202.833 336.5,203.5C 335.791,202.596 334.791,202.263 333.5,202.5C 333.953,201.542 334.619,200.708 335.5,200C 339.302,199.591 342.969,198.757 346.5,197.5 Z"/></g>
<g><path style="opacity:1" fill="#b48da8" d="M 346.5,201.5 C 346.5,202.167 346.5,202.833 346.5,203.5C 343.794,203.575 341.127,203.908 338.5,204.5C 337.508,204.672 336.842,204.338 336.5,203.5C 339.833,202.833 343.167,202.167 346.5,201.5 Z"/></g>
<g><path style="opacity:1" fill="#d1bab7" d="M 96.5,193.5 C 100.176,194.985 103.509,197.152 106.5,200C 104.039,199.592 101.706,198.926 99.5,198C 102.357,204.015 107.024,208.182 113.5,210.5C 115.632,212.955 118.299,214.621 121.5,215.5C 121.5,216.167 121.167,216.5 120.5,216.5C 110.43,214.141 102.43,208.808 96.5,200.5C 92.6541,194.831 88.3207,189.497 83.5,184.5C 84.365,183.417 85.365,183.251 86.5,184C 89.7025,187.371 93.0359,190.538 96.5,193.5 Z"/></g>
<g><path style="opacity:1" fill="#6684a9" d="M 220.5,188.5 C 221.167,188.5 221.833,188.5 222.5,188.5C 222.167,189.167 221.833,189.833 221.5,190.5C 216.606,192.773 212.273,195.773 208.5,199.5C 204.772,200.681 201.105,202.015 197.5,203.5C 194.237,204.482 190.903,205.149 187.5,205.5C 188.398,204.842 189.398,204.176 190.5,203.5C 190.376,202.893 190.043,202.56 189.5,202.5C 192.852,199.629 196.519,198.295 200.5,198.5C 197.527,199.987 194.527,201.487 191.5,203C 192,203.167 192.5,203.333 193,203.5C 196.576,202.292 200.076,200.959 203.5,199.5C 204.552,199.649 205.552,199.483 206.5,199C 211.056,195.236 215.723,191.736 220.5,188.5 Z"/></g>
<g><path style="opacity:1" fill="#cab098" d="M 293.5,199.5 C 294.458,199.953 295.292,200.619 296,201.5C 296.464,200.906 296.631,200.239 296.5,199.5C 298.472,202.765 300.472,206.098 302.5,209.5C 304.412,212.461 307.079,214.461 310.5,215.5C 310.5,215.833 310.5,216.167 310.5,216.5C 309.833,216.5 309.167,216.5 308.5,216.5C 307.292,215.766 305.959,215.433 304.5,215.5C 304.027,214.094 303.027,213.427 301.5,213.5C 296.539,209.874 291.872,205.874 287.5,201.5C 287.897,200.475 288.563,200.308 289.5,201C 291.401,203.613 293.735,205.28 296.5,206C 294.081,204.491 293.081,202.325 293.5,199.5 Z"/></g>
<g><path style="opacity:1" fill="#68c5db" d="M 179.5,201.5 C 182.237,201.401 184.904,201.735 187.5,202.5C 184.201,204.483 180.534,205.483 176.5,205.5C 172.538,206.376 168.538,207.042 164.5,207.5C 169.324,205.261 174.324,203.261 179.5,201.5 Z"/></g>
<g><path style="opacity:1" fill="#2f52cc" d="M 187.5,202.5 C 188.167,202.5 188.833,202.5 189.5,202.5C 190.043,202.56 190.376,202.893 190.5,203.5C 189.398,204.176 188.398,204.842 187.5,205.5C 184.67,205.963 182.003,206.629 179.5,207.5C 177.833,207.5 176.167,207.5 174.5,207.5C 174.062,207.565 173.728,207.399 173.5,207C 174.737,206.768 175.737,206.268 176.5,205.5C 180.534,205.483 184.201,204.483 187.5,202.5 Z"/></g>
<g><path style="opacity:1" fill="#9bcae2" d="M 278.5,192.5 C 281.14,195.806 284.14,198.806 287.5,201.5C 291.872,205.874 296.539,209.874 301.5,213.5C 297.097,211.79 293.097,209.29 289.5,206C 288.5,205.333 287.5,205.333 286.5,206C 290.549,209.352 294.882,212.185 299.5,214.5C 299.833,215.167 300.167,215.833 300.5,216.5C 299.833,216.5 299.5,216.833 299.5,217.5C 296.192,215.462 292.692,213.795 289,212.5C 287.967,212.548 287.634,212.881 288,213.5C 290.167,215 292.333,216.5 294.5,218C 293.552,218.483 292.552,218.649 291.5,218.5C 289.958,217.699 288.292,217.366 286.5,217.5C 283.129,214.129 279.463,211.129 275.5,208.5C 274.833,207.167 274.167,205.833 273.5,204.5C 276.022,202.215 279.022,200.381 282.5,199C 280.077,197.429 278.744,195.263 278.5,192.5 Z"/></g>
<g><path style="opacity:1" fill="#585ea4" d="M 333.5,202.5 C 334.791,202.263 335.791,202.596 336.5,203.5C 336.842,204.338 337.508,204.672 338.5,204.5C 335.98,205.532 333.314,206.032 330.5,206C 331.71,204.961 332.71,203.794 333.5,202.5 Z"/></g>
<g><path style="opacity:1" fill="#e2d29f" d="M 92.5,186.5 C 93.552,186.351 94.552,186.517 95.5,187C 98.1237,191.463 101.79,194.629 106.5,196.5C 107.096,200.229 109.263,202.563 113,203.5C 113.45,205.519 114.283,207.352 115.5,209C 114.584,209.278 113.918,209.778 113.5,210.5C 107.024,208.182 102.357,204.015 99.5,198C 101.706,198.926 104.039,199.592 106.5,200C 103.509,197.152 100.176,194.985 96.5,193.5C 97.2389,193.631 97.9056,193.464 98.5,193C 96.2941,190.963 94.2941,188.797 92.5,186.5 Z"/></g>
<g><path style="opacity:1" fill="#e4d588" d="M 106.5,196.5 C 111.19,200.515 116.523,203.515 122.5,205.5C 122.5,205.833 122.5,206.167 122.5,206.5C 120.883,205.962 119.216,205.629 117.5,205.5C 117.286,207.144 117.62,208.644 118.5,210C 123.564,210.728 127.23,213.395 129.5,218C 131.025,219.009 132.692,219.509 134.5,219.5C 134.5,220.833 133.833,221.5 132.5,221.5C 128.74,219.784 125.073,217.784 121.5,215.5C 118.299,214.621 115.632,212.955 113.5,210.5C 113.918,209.778 114.584,209.278 115.5,209C 114.283,207.352 113.45,205.519 113,203.5C 109.263,202.563 107.096,200.229 106.5,196.5 Z"/></g>
<g><path style="opacity:1" fill="#89c2d2" d="M 197.5,203.5 C 198.209,204.404 199.209,204.737 200.5,204.5C 199.158,205.793 197.491,206.626 195.5,207C 190.177,207.499 184.844,207.666 179.5,207.5C 182.003,206.629 184.67,205.963 187.5,205.5C 190.903,205.149 194.237,204.482 197.5,203.5 Z"/></g>
<g><path style="opacity:1" fill="#784424" d="M 296.5,197.5 C 298.884,199.247 300.55,201.58 301.5,204.5C 302.72,203.289 303.887,203.289 305,204.5C 306.094,206.078 306.928,207.745 307.5,209.5C 305.827,208.657 304.66,207.324 304,205.5C 303.79,207.058 303.29,208.391 302.5,209.5C 300.472,206.098 298.472,202.765 296.5,199.5C 296.5,198.833 296.5,198.167 296.5,197.5 Z"/></g>
<g><path style="opacity:1" fill="#868bd9" d="M 176.5,205.5 C 175.737,206.268 174.737,206.768 173.5,207C 173.728,207.399 174.062,207.565 174.5,207.5C 170.702,208.483 166.702,208.817 162.5,208.5C 162.842,207.662 163.508,207.328 164.5,207.5C 168.538,207.042 172.538,206.376 176.5,205.5 Z"/></g>
<g><path style="opacity:1" fill="#b8958c" d="M 262.5,173.5 C 262.264,176.609 262.597,179.609 263.5,182.5C 262.876,182.917 262.543,183.584 262.5,184.5C 263.351,188.32 265.017,191.654 267.5,194.5C 268.481,198.464 270.481,201.797 273.5,204.5C 274.167,205.833 274.833,207.167 275.5,208.5C 275.5,208.833 275.5,209.167 275.5,209.5C 274.493,211.899 275.159,213.899 277.5,215.5C 277.5,215.833 277.5,216.167 277.5,216.5C 277.993,218.806 278.326,221.139 278.5,223.5C 273.268,216.048 268.768,208.048 265,199.5C 261.665,190.911 260.832,182.244 262.5,173.5 Z"/></g>
<g><path style="opacity:1" fill="#a3581d" d="M 307.5,209.5 C 308.451,211.118 309.784,212.451 311.5,213.5C 311.137,214.183 310.804,214.85 310.5,215.5C 307.079,214.461 304.412,212.461 302.5,209.5C 303.29,208.391 303.79,207.058 304,205.5C 304.66,207.324 305.827,208.657 307.5,209.5 Z"/></g>
<g><path style="opacity:1" fill="#4d268b" d="M 333.5,202.5 C 332.71,203.794 331.71,204.961 330.5,206C 333.314,206.032 335.98,205.532 338.5,204.5C 341.127,203.908 343.794,203.575 346.5,203.5C 346.5,203.833 346.5,204.167 346.5,204.5C 341.703,206.433 336.703,207.933 331.5,209C 326.611,211.605 321.945,214.438 317.5,217.5C 319.173,213.827 321.84,211.16 325.5,209.5C 326.756,209.539 327.756,209.039 328.5,208C 326.09,207.943 324.756,206.776 324.5,204.5C 325.833,204.5 327.167,204.5 328.5,204.5C 328.5,203.5 328.5,202.5 328.5,201.5C 330.216,201.629 331.883,201.962 333.5,202.5 Z"/></g>
<g><path style="opacity:1" fill="#d3bad2" d="M 143.5,208.5 C 144.5,208.5 145.5,208.5 146.5,208.5C 146.414,209.496 146.748,210.329 147.5,211C 150.063,212.079 152.729,212.579 155.5,212.5C 158.297,213.808 158.131,214.475 155,214.5C 150.573,212.564 146.073,212.23 141.5,213.5C 140.167,212.5 138.833,211.5 137.5,210.5C 137.389,209.883 137.056,209.383 136.5,209C 138.81,208.503 141.143,208.337 143.5,208.5 Z"/></g>
<g><path style="opacity:1" fill="#59b3d7" d="M 96.5,207.5 C 97.209,206.596 98.209,206.263 99.5,206.5C 104.002,210.911 109.002,214.577 114.5,217.5C 114.5,217.833 114.5,218.167 114.5,218.5C 113.833,218.5 113.167,218.5 112.5,218.5C 111.167,218.167 109.833,217.833 108.5,217.5C 107.205,216.512 105.872,215.512 104.5,214.5C 101.859,212.196 99.192,209.862 96.5,207.5 Z"/></g>
<g><path style="opacity:1" fill="#9aad92" d="M 301.5,213.5 C 303.027,213.427 304.027,214.094 304.5,215.5C 302.784,215.371 301.117,215.038 299.5,214.5C 294.882,212.185 290.549,209.352 286.5,206C 287.5,205.333 288.5,205.333 289.5,206C 293.097,209.29 297.097,211.79 301.5,213.5 Z"/></g>
<g><path style="opacity:1" fill="#987f74" d="M 94.5,200.5 C 95.1667,200.5 95.8333,200.5 96.5,200.5C 102.43,208.808 110.43,214.141 120.5,216.5C 120.631,217.376 120.298,218.043 119.5,218.5C 117.929,217.691 116.262,217.357 114.5,217.5C 109.002,214.577 104.002,210.911 99.5,206.5C 97.8333,204.5 96.1667,202.5 94.5,200.5 Z"/></g>
<g><path style="opacity:1" fill="#dbcac4" d="M 208.5,202.5 C 202.243,206.142 195.577,208.809 188.5,210.5C 177.284,210.13 166.284,210.797 155.5,212.5C 152.729,212.579 150.063,212.079 147.5,211C 146.748,210.329 146.414,209.496 146.5,208.5C 151.833,208.5 157.167,208.5 162.5,208.5C 166.702,208.817 170.702,208.483 174.5,207.5C 176.167,207.5 177.833,207.5 179.5,207.5C 184.844,207.666 190.177,207.499 195.5,207C 197.491,206.626 199.158,205.793 200.5,204.5C 202.993,203.226 205.659,202.56 208.5,202.5 Z"/></g>
<g><path style="opacity:1" fill="#090706" d="M 346.5,210.5 C 346.5,217.833 346.5,225.167 346.5,232.5C 342.777,231.653 339.111,230.653 335.5,229.5C 330.833,226.603 325.833,224.27 320.5,222.5C 320.5,221.833 320.167,221.5 319.5,221.5C 322.689,218.737 326.356,216.737 330.5,215.5C 335.718,213.427 341.052,211.76 346.5,210.5 Z"/></g>
<g><path style="opacity:1" fill="#37b478" d="M 275.5,209.5 C 275.5,209.167 275.5,208.833 275.5,208.5C 279.463,211.129 283.129,214.129 286.5,217.5C 286.167,217.5 285.833,217.5 285.5,217.5C 281.388,215.781 278.055,213.114 275.5,209.5 Z"/></g>
<g><path style="opacity:1" fill="#17171e" d="M 346.5,204.5 C 346.5,205.5 346.5,206.5 346.5,207.5C 343.185,208.329 339.852,209.162 336.5,210C 334.937,211.947 332.937,213.114 330.5,213.5C 326.366,214.484 322.532,216.151 319,218.5C 318.235,218.43 317.735,218.097 317.5,217.5C 321.945,214.438 326.611,211.605 331.5,209C 336.703,207.933 341.703,206.433 346.5,204.5 Z"/></g>
<g><path style="opacity:1" fill="#98a09e" d="M 346.5,207.5 C 346.5,208.5 346.5,209.5 346.5,210.5C 341.052,211.76 335.718,213.427 330.5,215.5C 329.494,215.062 329.494,214.396 330.5,213.5C 332.937,213.114 334.937,211.947 336.5,210C 339.852,209.162 343.185,208.329 346.5,207.5 Z"/></g>
<g><path style="opacity:1" fill="#cba143" d="M 192.5,217.5 C 191.167,217.833 189.833,218.167 188.5,218.5C 184.33,217.543 179.997,217.543 175.5,218.5C 175.611,217.883 175.944,217.383 176.5,217C 174.866,216.506 173.199,216.34 171.5,216.5C 179.036,215.186 186.703,213.519 194.5,211.5C 196.782,210.61 199.115,210.444 201.5,211C 198.079,212.699 195.079,214.865 192.5,217.5 Z"/></g>
<g><path style="opacity:1" fill="#c3a787" d="M 223.5,197.5 C 213.02,207.317 201.687,215.983 189.5,223.5C 185.993,223.92 182.659,224.92 179.5,226.5C 179.167,226.5 178.833,226.5 178.5,226.5C 179.749,224.864 181.416,223.697 183.5,223C 187.575,222.127 191.242,220.461 194.5,218C 193.906,217.536 193.239,217.369 192.5,217.5C 195.079,214.865 198.079,212.699 201.5,211C 199.115,210.444 196.782,210.61 194.5,211.5C 192.735,210.539 190.735,210.205 188.5,210.5C 195.577,208.809 202.243,206.142 208.5,202.5C 213.99,202.055 218.657,199.722 222.5,195.5C 223.298,195.957 223.631,196.624 223.5,197.5 Z"/></g>
<g><path style="opacity:1" fill="#edcf59" d="M 122.5,206.5 C 124.8,210.636 128.133,212.636 132.5,212.5C 131.833,211.833 131.167,211.167 130.5,210.5C 132.811,209.425 135.144,209.425 137.5,210.5C 138.833,211.5 140.167,212.5 141.5,213.5C 140.652,214.625 139.652,214.625 138.5,213.5C 138.167,213.5 137.833,213.5 137.5,213.5C 136.791,212.596 135.791,212.263 134.5,212.5C 134.5,214.833 134.5,217.167 134.5,219.5C 132.692,219.509 131.025,219.009 129.5,218C 127.23,213.395 123.564,210.728 118.5,210C 117.62,208.644 117.286,207.144 117.5,205.5C 119.216,205.629 120.883,205.962 122.5,206.5 Z"/></g>
<g><path style="opacity:1" fill="#e3b88a" d="M 188.5,210.5 C 190.735,210.205 192.735,210.539 194.5,211.5C 186.703,213.519 179.036,215.186 171.5,216.5C 167.167,216.5 162.833,216.5 158.5,216.5C 156.5,216.5 154.5,216.5 152.5,216.5C 152.5,217.5 152.5,218.5 152.5,219.5C 151.022,219.238 149.689,219.571 148.5,220.5C 149.535,222.128 149.535,223.795 148.5,225.5C 147.833,225.5 147.167,225.5 146.5,225.5C 143.833,225.5 141.167,225.5 138.5,225.5C 136.249,224.589 134.249,223.256 132.5,221.5C 133.833,221.5 134.5,220.833 134.5,219.5C 134.5,217.167 134.5,214.833 134.5,212.5C 135.791,212.263 136.791,212.596 137.5,213.5C 136.252,214.334 135.585,215.667 135.5,217.5C 135.833,218.833 136.167,220.167 136.5,221.5C 137.549,218.92 138.216,216.254 138.5,213.5C 139.652,214.625 140.652,214.625 141.5,213.5C 146.073,212.23 150.573,212.564 155,214.5C 158.131,214.475 158.297,213.808 155.5,212.5C 166.284,210.797 177.284,210.13 188.5,210.5 Z"/></g>
<g><path style="opacity:1" fill="#ecbbec" d="M 137.5,213.5 C 137.833,213.5 138.167,213.5 138.5,213.5C 138.216,216.254 137.549,218.92 136.5,221.5C 136.167,220.167 135.833,218.833 135.5,217.5C 135.585,215.667 136.252,214.334 137.5,213.5 Z"/></g>
<g><path style="opacity:1" fill="#6669c8" d="M 299.5,217.5 C 299.5,216.833 299.833,216.5 300.5,216.5C 303.485,217.326 306.151,218.659 308.5,220.5C 307.833,220.5 307.167,220.5 306.5,220.5C 304.085,219.695 301.751,218.695 299.5,217.5 Z"/></g>
<g><path style="opacity:1" fill="#291a0f" d="M 104.5,214.5 C 105.872,215.512 107.205,216.512 108.5,217.5C 110.428,219.474 112.761,220.974 115.5,222C 116.252,222.671 116.586,223.504 116.5,224.5C 111.332,222.341 106.665,219.341 102.5,215.5C 102.957,214.702 103.624,214.369 104.5,214.5 Z"/></g>
<g><path style="opacity:1" fill="#a2aa8c" d="M 121.5,215.5 C 125.073,217.784 128.74,219.784 132.5,221.5C 129.447,220.576 126.447,220.576 123.5,221.5C 120.406,220.787 117.406,219.787 114.5,218.5C 114.5,218.167 114.5,217.833 114.5,217.5C 116.262,217.357 117.929,217.691 119.5,218.5C 120.298,218.043 120.631,217.376 120.5,216.5C 121.167,216.5 121.5,216.167 121.5,215.5 Z"/></g>
<g><path style="opacity:1" fill="#e69f61" d="M 158.5,216.5 C 162.833,216.5 167.167,216.5 171.5,216.5C 173.199,216.34 174.866,216.506 176.5,217C 175.944,217.383 175.611,217.883 175.5,218.5C 172.729,219.633 169.896,220.633 167,221.5C 164.882,220.524 162.715,219.69 160.5,219C 159.619,218.292 158.953,217.458 158.5,216.5 Z"/></g>
<g><path style="opacity:1" fill="#765a43" d="M 78.5,185.5 C 79.8333,186.167 80.8333,187.167 81.5,188.5C 81.5037,191.785 83.1704,194.451 86.5,196.5C 90.5343,199.599 93.8676,203.266 96.5,207.5C 99.192,209.862 101.859,212.196 104.5,214.5C 103.624,214.369 102.957,214.702 102.5,215.5C 106.665,219.341 111.332,222.341 116.5,224.5C 125.958,229.933 136.291,232.6 147.5,232.5C 152.179,232.666 156.845,232.499 161.5,232C 162.737,231.768 163.737,231.268 164.5,230.5C 166.91,231.438 169.244,231.438 171.5,230.5C 173.806,230.007 176.139,229.674 178.5,229.5C 159.987,235.868 141.32,236.035 122.5,230C 103.111,220.443 88.111,206.277 77.5,187.5C 78.3382,187.158 78.6716,186.492 78.5,185.5 Z"/></g>
<g><path style="opacity:1" fill="#4d8775" d="M 299.5,214.5 C 301.117,215.038 302.784,215.371 304.5,215.5C 305.959,215.433 307.292,215.766 308.5,216.5C 311.755,218.959 315.422,220.626 319.5,221.5C 320.167,221.5 320.5,221.833 320.5,222.5C 322.031,223.925 321.698,224.591 319.5,224.5C 315.725,223.445 312.058,222.112 308.5,220.5C 306.151,218.659 303.485,217.326 300.5,216.5C 300.167,215.833 299.833,215.167 299.5,214.5 Z"/></g>
<g><path style="opacity:1" fill="#846d63" d="M 330.5,213.5 C 329.494,214.396 329.494,215.062 330.5,215.5C 326.356,216.737 322.689,218.737 319.5,221.5C 315.422,220.626 311.755,218.959 308.5,216.5C 309.167,216.5 309.833,216.5 310.5,216.5C 312.258,216.877 313.925,217.544 315.5,218.5C 316.183,218.137 316.85,217.804 317.5,217.5C 317.735,218.097 318.235,218.43 319,218.5C 322.532,216.151 326.366,214.484 330.5,213.5 Z"/></g>
<g><path style="opacity:1" fill="#9f6446" d="M 192.5,217.5 C 193.239,217.369 193.906,217.536 194.5,218C 191.242,220.461 187.575,222.127 183.5,223C 181.416,223.697 179.749,224.864 178.5,226.5C 173.355,227.691 168.355,227.691 163.5,226.5C 172.032,224.287 180.366,221.62 188.5,218.5C 189.833,218.167 191.167,217.833 192.5,217.5 Z"/></g>
<g><path style="opacity:1" fill="#5c489a" d="M 112.5,218.5 C 113.167,218.5 113.833,218.5 114.5,218.5C 117.406,219.787 120.406,220.787 123.5,221.5C 124.514,222.674 125.847,223.34 127.5,223.5C 122.004,223.948 117.004,222.282 112.5,218.5 Z"/></g>
<g><path style="opacity:1" fill="#df8f1d" d="M 158.5,216.5 C 158.953,217.458 159.619,218.292 160.5,219C 162.715,219.69 164.882,220.524 167,221.5C 169.896,220.633 172.729,219.633 175.5,218.5C 179.997,217.543 184.33,217.543 188.5,218.5C 180.366,221.62 172.032,224.287 163.5,226.5C 158.547,225.671 153.547,225.337 148.5,225.5C 149.535,223.795 149.535,222.128 148.5,220.5C 149.689,219.571 151.022,219.238 152.5,219.5C 152.5,218.5 152.5,217.5 152.5,216.5C 154.5,216.5 156.5,216.5 158.5,216.5 Z"/></g>
<g><path style="opacity:1" fill="#5f6658" d="M 132.5,221.5 C 134.249,223.256 136.249,224.589 138.5,225.5C 137.833,225.5 137.5,225.833 137.5,226.5C 134.095,225.752 130.762,224.752 127.5,223.5C 125.847,223.34 124.514,222.674 123.5,221.5C 126.447,220.576 129.447,220.576 132.5,221.5 Z"/></g>
<g><path style="opacity:1" fill="#dabca3" d="M 299.5,217.5 C 301.751,218.695 304.085,219.695 306.5,220.5C 308.5,221.833 310.5,223.167 312.5,224.5C 314.938,226.535 317.605,228.201 320.5,229.5C 317.09,229.218 313.757,228.551 310.5,227.5C 309.702,227.957 309.369,228.624 309.5,229.5C 302.458,227.323 296.458,223.656 291.5,218.5C 292.552,218.649 293.552,218.483 294.5,218C 292.333,216.5 290.167,215 288,213.5C 287.634,212.881 287.967,212.548 289,212.5C 292.692,213.795 296.192,215.462 299.5,217.5 Z"/></g>
<g><path style="opacity:1" fill="#6677a7" d="M 137.5,226.5 C 137.5,225.833 137.833,225.5 138.5,225.5C 141.167,225.5 143.833,225.5 146.5,225.5C 146.833,226.167 147.167,226.833 147.5,227.5C 144.57,226.701 141.57,226.368 138.5,226.5C 138.167,226.5 137.833,226.5 137.5,226.5 Z"/></g>
<g><path style="opacity:1" fill="#cf6d93" d="M 306.5,220.5 C 307.167,220.5 307.833,220.5 308.5,220.5C 312.058,222.112 315.725,223.445 319.5,224.5C 320.167,225.167 320.833,225.833 321.5,226.5C 320.833,226.5 320.167,226.5 319.5,226.5C 317.254,225.545 314.921,224.878 312.5,224.5C 310.5,223.167 308.5,221.833 306.5,220.5 Z"/></g>
<g><path style="opacity:1" fill="#61533f" d="M 189.5,223.5 C 186.322,226.258 182.655,228.258 178.5,229.5C 179.11,228.609 179.443,227.609 179.5,226.5C 182.659,224.92 185.993,223.92 189.5,223.5 Z"/></g>
<g><path style="opacity:1" fill="#e7c52e" d="M 290.5,225.5 C 289.903,225.735 289.57,226.235 289.5,227C 290.414,228.406 291.08,229.906 291.5,231.5C 290.167,231.833 288.833,232.167 287.5,232.5C 283.664,227.362 280.33,222.029 277.5,216.5C 277.5,216.167 277.5,215.833 277.5,215.5C 277.435,215.062 277.601,214.728 278,214.5C 282.36,218.032 286.527,221.699 290.5,225.5 Z"/></g>
<g><path style="opacity:1" fill="#777256" d="M 320.5,222.5 C 325.833,224.27 330.833,226.603 335.5,229.5C 330.827,228.497 326.161,227.497 321.5,226.5C 320.833,225.833 320.167,225.167 319.5,224.5C 321.698,224.591 322.031,223.925 320.5,222.5 Z"/></g>
<g><path style="opacity:1" fill="#1c1415" d="M 138.5,226.5 C 141.57,226.368 144.57,226.701 147.5,227.5C 150.518,227.335 153.518,227.502 156.5,228C 158.653,230.165 161.319,230.998 164.5,230.5C 163.737,231.268 162.737,231.768 161.5,232C 156.845,232.499 152.179,232.666 147.5,232.5C 144.657,230.599 141.324,229.433 137.5,229C 139.619,228.658 139.953,227.825 138.5,226.5 Z"/></g>
<g><path style="opacity:1" fill="#957e2b" d="M 148.5,225.5 C 153.547,225.337 158.547,225.671 163.5,226.5C 168.355,227.691 173.355,227.691 178.5,226.5C 178.833,226.5 179.167,226.5 179.5,226.5C 179.443,227.609 179.11,228.609 178.5,229.5C 176.139,229.674 173.806,230.007 171.5,230.5C 163.951,228.283 156.284,226.616 148.5,225.5 Z"/></g>
<g><path style="opacity:1" fill="#f4b52c" d="M 290.5,225.5 C 295.339,229.501 300.339,233.334 305.5,237C 304.584,237.278 303.918,237.778 303.5,238.5C 299.082,237.125 295.082,234.792 291.5,231.5C 291.08,229.906 290.414,228.406 289.5,227C 289.57,226.235 289.903,225.735 290.5,225.5 Z"/></g>
<g><path style="opacity:1" fill="#e2c446" d="M 285.5,217.5 C 285.833,217.5 286.167,217.5 286.5,217.5C 288.292,217.366 289.958,217.699 291.5,218.5C 296.458,223.656 302.458,227.323 309.5,229.5C 310.167,229.5 310.5,229.833 310.5,230.5C 310.5,231.167 310.5,231.833 310.5,232.5C 310.167,232.5 309.833,232.5 309.5,232.5C 300.86,228.514 292.86,223.514 285.5,217.5 Z"/></g>
<g><path style="opacity:1" fill="#51290f" d="M 108.5,217.5 C 109.833,217.833 111.167,218.167 112.5,218.5C 117.004,222.282 122.004,223.948 127.5,223.5C 130.762,224.752 134.095,225.752 137.5,226.5C 137.833,226.5 138.167,226.5 138.5,226.5C 139.953,227.825 139.619,228.658 137.5,229C 141.324,229.433 144.657,230.599 147.5,232.5C 136.291,232.6 125.958,229.933 116.5,224.5C 116.586,223.504 116.252,222.671 115.5,222C 112.761,220.974 110.428,219.474 108.5,217.5 Z"/></g>
<g><path style="opacity:1" fill="#565d20" d="M 146.5,225.5 C 147.167,225.5 147.833,225.5 148.5,225.5C 156.284,226.616 163.951,228.283 171.5,230.5C 169.244,231.438 166.91,231.438 164.5,230.5C 161.319,230.998 158.653,230.165 156.5,228C 153.518,227.502 150.518,227.335 147.5,227.5C 147.167,226.833 146.833,226.167 146.5,225.5 Z"/></g>
<g><path style="opacity:1" fill="#6d846c" d="M 320.5,229.5 C 322.179,229.285 323.179,229.952 323.5,231.5C 322.5,232.167 321.5,232.833 320.5,233.5C 316.992,232.885 313.659,231.885 310.5,230.5C 310.5,229.833 310.167,229.5 309.5,229.5C 309.369,228.624 309.702,227.957 310.5,227.5C 313.757,228.551 317.09,229.218 320.5,229.5 Z"/></g>
<g><path style="opacity:1" fill="#df7c71" d="M 319.5,226.5 C 320.167,226.5 320.833,226.5 321.5,226.5C 326.161,227.497 330.827,228.497 335.5,229.5C 338.569,232.19 342.236,233.523 346.5,233.5C 346.5,234.5 346.5,235.5 346.5,236.5C 340.3,233.704 333.967,231.371 327.5,229.5C 324.743,228.488 322.076,227.488 319.5,226.5 Z"/></g>
<g><path style="opacity:1" fill="#836e5e" d="M 335.5,229.5 C 339.111,230.653 342.777,231.653 346.5,232.5C 346.5,232.833 346.5,233.167 346.5,233.5C 342.236,233.523 338.569,232.19 335.5,229.5 Z"/></g>
<g><path style="opacity:1" fill="#84b039" d="M 310.5,230.5 C 313.659,231.885 316.992,232.885 320.5,233.5C 320.5,233.833 320.5,234.167 320.5,234.5C 320.158,235.338 319.492,235.672 318.5,235.5C 315.62,235.06 312.954,234.06 310.5,232.5C 310.5,231.833 310.5,231.167 310.5,230.5 Z"/></g>
<g><path style="opacity:1" fill="#eace9c" d="M 312.5,224.5 C 314.921,224.878 317.254,225.545 319.5,226.5C 322.076,227.488 324.743,228.488 327.5,229.5C 327.953,230.458 328.619,231.292 329.5,232C 335.154,233.94 340.82,235.774 346.5,237.5C 346.5,238.5 346.5,239.5 346.5,240.5C 341.735,238.525 336.735,237.025 331.5,236C 329.35,233.624 326.683,232.124 323.5,231.5C 323.179,229.952 322.179,229.285 320.5,229.5C 317.605,228.201 314.938,226.535 312.5,224.5 Z"/></g>
<g><path style="opacity:1" fill="#f7c06c" d="M 327.5,229.5 C 333.967,231.371 340.3,233.704 346.5,236.5C 346.5,236.833 346.5,237.167 346.5,237.5C 340.82,235.774 335.154,233.94 329.5,232C 328.619,231.292 327.953,230.458 327.5,229.5 Z"/></g>
<g><path style="opacity:1" fill="#e4ba5a" d="M 291.5,231.5 C 295.082,234.792 299.082,237.125 303.5,238.5C 307.542,242.19 312.209,244.857 317.5,246.5C 318.552,248.655 317.886,248.988 315.5,247.5C 314.537,247.97 314.537,248.637 315.5,249.5C 312.167,247.833 308.833,246.167 305.5,244.5C 303.853,242.674 301.853,241.34 299.5,240.5C 297.562,238.837 295.228,238.171 292.5,238.5C 290.833,236.5 289.167,234.5 287.5,232.5C 288.833,232.167 290.167,231.833 291.5,231.5 Z"/></g>
<g><path style="opacity:1" fill="#dfbd45" d="M 308.5,233.5 C 311.032,234.596 313.365,235.929 315.5,237.5C 313.833,237.5 312.167,237.5 310.5,237.5C 305.853,235.175 301.52,232.341 297.5,229C 301.339,229.914 305.006,231.414 308.5,233.5 Z"/></g>
<g><path style="opacity:1" fill="#d3ad58" d="M 320.5,234.5 C 329.179,237.169 337.845,239.836 346.5,242.5C 346.5,243.167 346.5,243.833 346.5,244.5C 336.792,242.412 327.459,239.412 318.5,235.5C 319.492,235.672 320.158,235.338 320.5,234.5 Z"/></g>
<g><path style="opacity:1" fill="#bb8181" d="M 323.5,231.5 C 326.683,232.124 329.35,233.624 331.5,236C 336.735,237.025 341.735,238.525 346.5,240.5C 346.5,241.167 346.5,241.833 346.5,242.5C 337.845,239.836 329.179,237.169 320.5,234.5C 320.5,234.167 320.5,233.833 320.5,233.5C 321.5,232.833 322.5,232.167 323.5,231.5 Z"/></g>
<g><path style="opacity:1" fill="#d0bb88" d="M 277.5,216.5 C 280.33,222.029 283.664,227.362 287.5,232.5C 289.167,234.5 290.833,236.5 292.5,238.5C 291.791,239.404 290.791,239.737 289.5,239.5C 285.085,234.74 281.419,229.406 278.5,223.5C 278.326,221.139 277.993,218.806 277.5,216.5 Z"/></g>
<g><path style="opacity:1" fill="#d4a8ac" d="M 308.5,233.5 C 308.5,232.833 308.833,232.5 309.5,232.5C 309.833,232.5 310.167,232.5 310.5,232.5C 312.954,234.06 315.62,235.06 318.5,235.5C 327.459,239.412 336.792,242.412 346.5,244.5C 346.5,245.167 346.5,245.833 346.5,246.5C 340.737,245.579 335.07,244.246 329.5,242.5C 325.059,240.462 320.393,238.796 315.5,237.5C 313.365,235.929 311.032,234.596 308.5,233.5 Z"/></g>
<g><path style="opacity:1" fill="#ea9536" d="M 310.5,237.5 C 312.167,237.5 313.833,237.5 315.5,237.5C 320.393,238.796 325.059,240.462 329.5,242.5C 324.32,242.249 319.32,241.249 314.5,239.5C 312.847,239.34 311.514,238.674 310.5,237.5 Z"/></g>
<g><path style="opacity:1" fill="#c48057" d="M 292.5,238.5 C 295.228,238.171 297.562,238.837 299.5,240.5C 298.325,240.281 297.325,240.614 296.5,241.5C 298.015,243.082 299.681,244.416 301.5,245.5C 299.585,245.216 297.919,245.549 296.5,246.5C 293.833,244.5 291.5,242.167 289.5,239.5C 290.791,239.737 291.791,239.404 292.5,238.5 Z"/></g>
<g><path style="opacity:1" fill="#e7b988" d="M 275.5,209.5 C 278.055,213.114 281.388,215.781 285.5,217.5C 292.86,223.514 300.86,228.514 309.5,232.5C 308.833,232.5 308.5,232.833 308.5,233.5C 305.006,231.414 301.339,229.914 297.5,229C 301.52,232.341 305.853,235.175 310.5,237.5C 311.514,238.674 312.847,239.34 314.5,239.5C 315.047,241.485 316.047,243.151 317.5,244.5C 317.5,245.167 317.5,245.833 317.5,246.5C 312.209,244.857 307.542,242.19 303.5,238.5C 303.918,237.778 304.584,237.278 305.5,237C 300.339,233.334 295.339,229.501 290.5,225.5C 286.527,221.699 282.36,218.032 278,214.5C 277.601,214.728 277.435,215.062 277.5,215.5C 275.159,213.899 274.493,211.899 275.5,209.5 Z"/></g>
<g><path style="opacity:1" fill="#92536a" d="M 299.5,240.5 C 301.853,241.34 303.853,242.674 305.5,244.5C 305.5,245.833 304.833,246.5 303.5,246.5C 303.167,246.5 302.833,246.5 302.5,246.5C 302.5,245.833 302.167,245.5 301.5,245.5C 299.681,244.416 298.015,243.082 296.5,241.5C 297.325,240.614 298.325,240.281 299.5,240.5 Z"/></g>
<g><path style="opacity:1" fill="#e86d3f" d="M 314.5,239.5 C 319.32,241.249 324.32,242.249 329.5,242.5C 335.07,244.246 340.737,245.579 346.5,246.5C 346.5,247.5 346.5,248.5 346.5,249.5C 344.548,249.995 342.548,250.328 340.5,250.5C 336.824,249.829 333.157,249.162 329.5,248.5C 325.392,247.543 321.392,246.21 317.5,244.5C 316.047,243.151 315.047,241.485 314.5,239.5 Z"/></g>
<g><path style="opacity:1" fill="#eddbb4" d="M 305.5,244.5 C 308.833,246.167 312.167,247.833 315.5,249.5C 315.5,250.167 315.833,250.5 316.5,250.5C 311.554,251.632 307.22,250.299 303.5,246.5C 304.833,246.5 305.5,245.833 305.5,244.5 Z"/></g>
<g><path style="opacity:1" fill="#de9f61" d="M 317.5,244.5 C 321.392,246.21 325.392,247.543 329.5,248.5C 330.306,249.728 331.306,250.728 332.5,251.5C 328.053,250.8 323.72,249.967 319.5,249C 320.571,249.852 321.571,250.685 322.5,251.5C 324.972,252.909 327.305,254.576 329.5,256.5C 329.5,256.833 329.5,257.167 329.5,257.5C 325.107,255.362 320.774,253.028 316.5,250.5C 315.833,250.5 315.5,250.167 315.5,249.5C 314.537,248.637 314.537,247.97 315.5,247.5C 317.886,248.988 318.552,248.655 317.5,246.5C 317.5,245.833 317.5,245.167 317.5,244.5 Z"/></g>
<g><path style="opacity:1" fill="#c5b887" d="M 301.5,245.5 C 302.167,245.5 302.5,245.833 302.5,246.5C 301.448,246.351 300.448,246.517 299.5,247C 302.567,249.188 305.567,251.355 308.5,253.5C 306.784,253.371 305.117,253.038 303.5,252.5C 300.573,251.243 298.239,249.243 296.5,246.5C 297.919,245.549 299.585,245.216 301.5,245.5 Z"/></g>
<g><path style="opacity:1" fill="#de8039" d="M 329.5,248.5 C 333.157,249.162 336.824,249.829 340.5,250.5C 342.548,250.328 344.548,249.995 346.5,249.5C 346.5,251.5 346.5,253.5 346.5,255.5C 341.508,255.041 336.841,253.707 332.5,251.5C 331.306,250.728 330.306,249.728 329.5,248.5 Z"/></g>
<g><path style="opacity:1" fill="#e2da80" d="M 302.5,246.5 C 302.833,246.5 303.167,246.5 303.5,246.5C 307.22,250.299 311.554,251.632 316.5,250.5C 320.774,253.028 325.107,255.362 329.5,257.5C 331.031,258.925 330.698,259.591 328.5,259.5C 328.167,259.5 327.833,259.5 327.5,259.5C 327.5,258.833 327.167,258.5 326.5,258.5C 326.082,257.778 325.416,257.278 324.5,257C 321.854,256.503 319.187,256.336 316.5,256.5C 315.5,256.5 314.5,256.5 313.5,256.5C 312.232,254.953 310.565,253.953 308.5,253.5C 305.567,251.355 302.567,249.188 299.5,247C 300.448,246.517 301.448,246.351 302.5,246.5 Z"/></g>
<g><path style="opacity:1" fill="#9f973b" d="M 332.5,251.5 C 336.841,253.707 341.508,255.041 346.5,255.5C 346.5,256.5 346.5,257.5 346.5,258.5C 338.509,256.17 330.509,253.837 322.5,251.5C 321.571,250.685 320.571,249.852 319.5,249C 323.72,249.967 328.053,250.8 332.5,251.5 Z"/></g>
<g><path style="opacity:1" fill="#85daa9" d="M 316.5,256.5 C 319.187,256.336 321.854,256.503 324.5,257C 325.416,257.278 326.082,257.778 326.5,258.5C 323.813,258.664 321.146,258.497 318.5,258C 317.584,257.722 316.918,257.222 316.5,256.5 Z"/></g>
<g><path style="opacity:1" fill="#b09391" d="M 303.5,252.5 C 305.117,253.038 306.784,253.371 308.5,253.5C 310.565,253.953 312.232,254.953 313.5,256.5C 315.822,258.664 318.489,260.331 321.5,261.5C 321.842,262.338 322.508,262.672 323.5,262.5C 322.833,263.167 322.167,263.833 321.5,264.5C 314.679,261.669 308.679,257.669 303.5,252.5 Z"/></g>
<g><path style="opacity:1" fill="#497b97" d="M 313.5,256.5 C 314.5,256.5 315.5,256.5 316.5,256.5C 316.918,257.222 317.584,257.722 318.5,258C 321.146,258.497 323.813,258.664 326.5,258.5C 327.167,258.5 327.5,258.833 327.5,259.5C 325.143,259.337 322.81,259.503 320.5,260C 321.056,260.383 321.389,260.883 321.5,261.5C 318.489,260.331 315.822,258.664 313.5,256.5 Z"/></g>
<g><path style="opacity:1" fill="#6d6140" d="M 346.5,260.5 C 346.5,261.167 346.5,261.833 346.5,262.5C 340.829,260.963 335.162,259.296 329.5,257.5C 329.5,257.167 329.5,256.833 329.5,256.5C 329.56,255.957 329.893,255.624 330.5,255.5C 335.753,257.479 341.086,259.146 346.5,260.5 Z"/></g>
<g><path style="opacity:1" fill="#a08351" d="M 322.5,251.5 C 330.509,253.837 338.509,256.17 346.5,258.5C 346.5,259.167 346.5,259.833 346.5,260.5C 341.086,259.146 335.753,257.479 330.5,255.5C 329.893,255.624 329.56,255.957 329.5,256.5C 327.305,254.576 324.972,252.909 322.5,251.5 Z"/></g>
<g><path style="opacity:1" fill="#383786" d="M 327.5,259.5 C 327.833,259.5 328.167,259.5 328.5,259.5C 329.167,260.167 329.833,260.833 330.5,261.5C 327.5,261.5 324.5,261.5 321.5,261.5C 321.389,260.883 321.056,260.383 320.5,260C 322.81,259.503 325.143,259.337 327.5,259.5 Z"/></g>
<g><path style="opacity:1" fill="#8b5427" d="M 329.5,257.5 C 335.162,259.296 340.829,260.963 346.5,262.5C 346.5,264.5 346.5,266.5 346.5,268.5C 344.883,267.962 343.216,267.629 341.5,267.5C 337.74,265.784 334.073,263.784 330.5,261.5C 329.833,260.833 329.167,260.167 328.5,259.5C 330.698,259.591 331.031,258.925 329.5,257.5 Z"/></g>
<g><path style="opacity:1" fill="#93895d" d="M 323.5,262.5 C 326.782,262.807 329.448,264.141 331.5,266.5C 335.923,269.648 340.923,271.648 346.5,272.5C 346.5,273.167 346.5,273.833 346.5,274.5C 337.708,272.223 329.375,268.89 321.5,264.5C 322.167,263.833 322.833,263.167 323.5,262.5 Z"/></g>
<g><path style="opacity:1" fill="#13152d" d="M 321.5,261.5 C 324.5,261.5 327.5,261.5 330.5,261.5C 334.073,263.784 337.74,265.784 341.5,267.5C 340.5,267.5 339.5,267.5 338.5,267.5C 336.139,267.326 333.806,266.993 331.5,266.5C 329.448,264.141 326.782,262.807 323.5,262.5C 322.508,262.672 321.842,262.338 321.5,261.5 Z"/></g>
<g><path style="opacity:1" fill="#1d227c" d="M 338.5,267.5 C 339.5,267.5 340.5,267.5 341.5,267.5C 343.216,267.629 344.883,267.962 346.5,268.5C 346.5,269.167 346.5,269.833 346.5,270.5C 343.284,270.655 340.617,269.655 338.5,267.5 Z"/></g>
<g><path style="opacity:1" fill="#549760" d="M 331.5,266.5 C 333.806,266.993 336.139,267.326 338.5,267.5C 340.617,269.655 343.284,270.655 346.5,270.5C 346.5,271.167 346.5,271.833 346.5,272.5C 340.923,271.648 335.923,269.648 331.5,266.5 Z"/></g>
</svg>
