<svg
  id="Layer_1"
  viewBox="0 0 128 128"
  xmlns="http://www.w3.org/2000/svg"
  xmlns:xlink="http://www.w3.org/1999/xlink"
>
  <linearGradient
    id="SVGID_1_"
    gradientUnits="userSpaceOnUse"
    x1="108.946"
    x2="50.629"
    y1="118.791"
    y2="60.473"
  >
    <stop offset=".0609991" stop-color="#fcf9f2" stop-opacity="0"></stop>
    <stop offset=".162" stop-color="#660099" stop-opacity=".108"></stop>
    <stop offset=".2839" stop-color="#660099" stop-opacity=".237"></stop>
    <stop offset=".4075" stop-color="#000000" stop-opacity=".369"></stop>
    <stop offset=".5299" stop-color="#fcda45" stop-opacity=".499"></stop>
    <stop offset=".6511" stop-color="#fcda45" stop-opacity=".628"></stop>
    <stop offset=".7706" stop-color="#000000" stop-opacity=".756"></stop>
    <stop offset=".8878" stop-color="#000000" stop-opacity=".881"></stop>
    <stop offset="1"></stop>
  </linearGradient>
  <g>
    <path
      d="m128 64c0 6.9-1.1 13.6-3.2 19.9-7.8 24.1-29.6 41.9-55.8 43.9-1.7.1-3.3.2-5 .2-35.4 0-64-28.7-64-64 0-35.4 28.6-64 64-64s64 28.6 64 64z"
      fill="#fcda45"
    ></path>
    <path
      d="m124.8 83.9c-7.8 24.1-29.6 41.9-55.8 43.9l-29.7-27.9 51.8-49.8z"
      fill="url(#SVGID_1_)"
      opacity=".2"
    ></path>
    <g>
      <path
        d="m69.9 30.2h-29.7c-1.8 0-3.3 1.5-3.3 3.3v63.3c0 1.8 1.5 3.3 3.3 3.3h47.5c1.8 0 3.3-1.5 3.3-3.3v-45.4z"
        fill="#660099"
      ></path>
      <g>
        <path
          d="m69.9 29h-29.7c-1.8 0-3.3 1.5-3.3 3.3v63.3c0 1.8 1.5 3.3 3.3 3.3h47.5c1.8 0 3.3-1.5 3.3-3.3v-45.4z"
          fill="#fcf9f2"
        ></path>
        <path
          d="m69.9 46.8c0 1.8 1.5 3.3 3.3 3.3h17.8l-21.1-21.1z"
          fill="#660099"
        ></path>
        <g>
          <path
            d="m73.4 67.2c-.4-3.6-3.2-4.2-3.2-4.2l-3.6-1.9-.6-1.9h-1.1-1.5-1.4l-.6 1.9-3.6 1.9s-2.9.6-3.2 4.2c-.4 3.6-.2 3.2-.2 3.2h8.8.8.8 8.8c0-.1.2.4-.2-3.2z"
            fill="#660099"
          ></path>
          <path
            d="m68.2 55.8c-.1 0-.2 0-.3.1 0-1.5-.3-3.1-.9-4.1-.7-1.1-1.9-1.3-3-1.3-2.1 0-3.8 2.4-3.9 5.3-.1-.1-.2-.1-.3-.1-.3.1-.3.6-.2 1.2s.5 1.1.7 1c.7 2 2.7 3 3.6 3 .8 0 2.9-1 3.6-3 .3.1.6-.4.7-1 .3-.5.3-1 0-1.1z"
            fill="#fcf9f2"
          ></path>
          <path
            d="m67.7 50.9c.2-.5-.4-.7-1.4-1.6-1-1-3.6-.3-3.6-.3s-1 .1-2.1 1c-1.1.8-1.3 2.8-1.3 3.8s.6 3.2.8 2.8c.1-.3.1-.8 0-1 0-.1 0-.3.1-.4l.2-.3s0-.1 0-.2v-.7c0-.2.1-.4.3-.5l.5-.3s1.8-1.3 4-1c.8.1 1.4 0 1.7-.3s.1 1.2.5 2.3c.3.9.3 1.9.3 2.2 0 .1.1.1.1.1.1 0 .1-.1.1-.1 0-.3 0-1.2.3-1.8.6-.8.8-3.4-.5-3.7z"
            fill="#000000"
          ></path>
        </g>
        <g fill="#000000">
          <path d="m44.6 73.9h38.8v3.6h-38.8z"></path>
          <path d="m44.6 81.6h38.8v3.6h-38.8z"></path>
          <path d="m44.6 89.3h22.9v3.6h-22.9z"></path>
        </g>
      </g>
    </g>
  </g>
</svg>
